<svg width="55" height="56" viewBox="0 0 55 56" fill="none" xmlns="http://www.w3.org/2000/svg">
<rect x="0.5" y="5.63086" width="49" height="49" stroke="white"/>
<rect x="5.5" y="0.630859" width="49" height="49" stroke="white"/>
<path d="M34 34.1309V37.1309H22V34.1309H20.5V37.1309C20.5 37.5287 20.658 37.9102 20.9393 38.1915C21.2206 38.4728 21.6022 38.6309 22 38.6309H34C34.3978 38.6309 34.7794 38.4728 35.0607 38.1915C35.342 37.9102 35.5 37.5287 35.5 37.1309V34.1309H34Z" fill="white"/>
<path d="M31.75 31.8809L30.6895 30.8204L28.75 32.7599V26.6309H27.25V32.7599L25.3105 30.8204L24.25 31.8809L28 35.6309L31.75 31.8809Z" fill="white"/>
<path d="M37 19.1309V17.6309H32.5V25.1309H34V22.1309H36.25V20.6309H34V19.1309H37Z" fill="white"/>
<path d="M28.75 25.1309H25.75V17.6309H28.75C29.3466 17.6315 29.9185 17.8687 30.3403 18.2905C30.7622 18.7124 30.9994 19.2843 31 19.8809V22.8809C30.9994 23.4774 30.7622 24.0494 30.3403 24.4712C29.9185 24.893 29.3466 25.1303 28.75 25.1309ZM27.25 23.6309H28.75C28.9489 23.6307 29.1395 23.5516 29.2801 23.411C29.4207 23.2704 29.4998 23.0797 29.5 22.8809V19.8809C29.4998 19.682 29.4207 19.4914 29.2801 19.3507C29.1395 19.2101 28.9489 19.1311 28.75 19.1309H27.25V23.6309Z" fill="white"/>
<path d="M22.75 17.6309H19V25.1309H20.5V22.8809H22.75C23.1476 22.8803 23.5288 22.722 23.81 22.4409C24.0912 22.1597 24.2494 21.7785 24.25 21.3809V19.1309C24.2496 18.7332 24.0914 18.3519 23.8102 18.0706C23.529 17.7894 23.1477 17.6313 22.75 17.6309ZM20.5 21.3809V19.1309H22.75L22.7508 21.3809H20.5Z" fill="white"/>
</svg>
