<svg width="55" height="55" viewBox="0 0 55 55" fill="none" xmlns="http://www.w3.org/2000/svg">
<rect x="0.5" y="5.5" width="49" height="49" stroke="white"/>
<rect x="5.5" y="0.5" width="49" height="49" stroke="white"/>
<path d="M30.2477 32.11L31.9277 30.43C32.154 30.2066 32.4403 30.0536 32.7518 29.9897C33.0634 29.9258 33.3867 29.9537 33.6827 30.07L35.7302 30.8875C36.0293 31.0089 36.2858 31.2162 36.4673 31.4831C36.6488 31.75 36.7473 32.0647 36.7502 32.3875V36.1375C36.7485 36.3571 36.7023 36.5741 36.6145 36.7753C36.5267 36.9766 36.3991 37.158 36.2393 37.3087C36.0796 37.4594 35.891 37.5761 35.6849 37.652C35.4788 37.7278 35.2595 37.7612 35.0402 37.75C20.6927 36.8575 17.7977 24.7075 17.2502 20.0575C17.2248 19.8292 17.248 19.598 17.3184 19.3793C17.3887 19.1606 17.5045 18.9592 17.6583 18.7885C17.812 18.6177 18.0002 18.4815 18.2103 18.3887C18.4205 18.2959 18.648 18.2486 18.8777 18.25H22.5002C22.8235 18.251 23.1391 18.3486 23.4064 18.5304C23.6737 18.7122 23.8805 18.9698 24.0002 19.27L24.8177 21.3175C24.9379 21.6123 24.9686 21.936 24.9059 22.2481C24.8432 22.5603 24.6899 22.847 24.4652 23.0725L22.7852 24.7525C22.7852 24.7525 23.7527 31.3 30.2477 32.11Z" fill="white"/>
</svg>
