<svg width="145" height="145" viewBox="0 0 145 145" fill="none" xmlns="http://www.w3.org/2000/svg">
<path d="M139.749 73.7703L139.189 79.1331C139.078 80.194 138.749 81.0337 138.202 81.6522C137.664 82.2824 136.918 82.5476 135.963 82.4479C135.433 82.3925 134.975 82.2052 134.59 81.8862C134.216 81.5682 133.947 81.1595 133.785 80.6599C133.248 81.998 132.253 82.5912 130.8 82.4394C129.728 82.3274 128.933 81.8797 128.415 81.0962C127.907 80.3139 127.711 79.3657 127.827 78.2518L128.419 72.5866L139.749 73.7703ZM137.571 75.988L134.913 75.7103L134.677 77.97C134.547 79.2219 134.921 79.8938 135.802 79.9858C136.322 80.0401 136.69 79.907 136.905 79.5863C137.132 79.2668 137.275 78.8206 137.335 78.2477L137.571 75.988ZM133.227 75.5341L130.139 75.2116L129.878 77.71C129.811 78.3571 129.864 78.8775 130.037 79.2709C130.209 79.675 130.598 79.9087 131.203 79.9718C131.818 80.0361 132.247 79.8772 132.491 79.4951C132.744 79.1248 132.907 78.5948 132.979 77.9052L133.227 75.5341Z" fill="white"/>
<path d="M137.766 88.6031L135.917 93.9566C135.548 95.0252 134.994 95.8102 134.257 96.3116C133.519 96.8129 132.636 96.8859 131.608 96.5306C130.983 96.3147 130.486 95.9736 130.116 95.5074C129.757 95.0447 129.569 94.5114 129.552 93.9074C129.04 94.7687 128.02 95.0089 126.493 94.6279C126.443 94.6105 126.283 94.5666 126.014 94.4962C125.745 94.4258 125.526 94.3728 125.358 94.3373C125.199 94.3052 125.004 94.2659 124.772 94.2196C124.54 94.1732 124.338 94.1541 124.165 94.1623C123.993 94.1706 123.858 94.2028 123.76 94.2591L124.606 91.8092C124.795 91.7843 125.018 91.7935 125.274 91.8367C125.54 91.8835 125.869 91.9579 126.263 92.06C126.667 92.1656 126.889 92.2254 126.929 92.2393C127.713 92.4199 128.303 92.4095 128.7 92.2081C129.094 92.0167 129.421 91.543 129.682 90.7868L130.408 88.6847L126.189 87.227L126.999 84.8829L137.766 88.6031ZM135.096 90.3045L132.117 89.2751L131.344 91.5133C131.118 92.1687 131.042 92.7126 131.119 93.1452C131.202 93.5914 131.545 93.919 132.15 94.128C132.715 94.3231 133.161 94.274 133.488 93.9807C133.811 93.6975 134.078 93.2534 134.287 92.6485L135.096 90.3045Z" fill="white"/>
<path d="M129.267 107.895L117.288 105.561L118.672 103.332L121.306 103.913L123.543 100.31L121.871 98.18L123.221 96.0052L130.626 105.706L129.267 107.895ZM123.176 104.358L127.572 105.317L124.772 101.789L123.176 104.358Z" fill="white"/>
<path d="M116.016 107.372L124.1 115.398L122.308 117.204L113.589 115.154L119.005 120.531L117.314 122.234L109.23 114.208L110.988 112.436L119.741 114.475L114.314 109.087L116.016 107.372Z" fill="white"/>
<path d="M106.636 116.582L112.645 126.26L108.73 128.691C107.226 129.625 105.812 129.925 104.488 129.592C103.154 129.265 102.004 128.322 101.036 126.763C100.068 125.205 99.7335 123.755 100.031 122.415C100.32 121.081 101.217 119.947 102.721 119.013L106.636 116.582ZM105.626 119.657L104.077 120.619C102.201 121.784 101.899 123.39 103.17 125.438C103.784 126.426 104.489 127.036 105.287 127.269C106.081 127.517 106.949 127.348 107.891 126.763L109.441 125.801L105.626 119.657Z" fill="white"/>
<path d="M97.0359 134.71L92.795 124.137L95.1265 123.202L99.3674 133.775L97.0359 134.71Z" fill="white"/>
<path d="M89.3063 125.712L91.6114 136.868L89.1201 137.383L82.9847 130.857L84.529 138.331L82.1787 138.817L79.8736 127.661L82.3179 127.156L88.4878 133.69L86.9403 126.2L89.3063 125.712Z" fill="white"/>
<path d="M65.8756 134.055L66.0658 127.898L67.649 127.947L67.8489 129.249C68.7341 128.231 69.891 127.744 71.3197 127.788C72.9082 127.837 74.1813 128.426 75.1389 129.555C76.0965 130.683 76.5483 132.122 76.4943 133.87C76.44 135.63 75.8733 137.047 74.7942 138.124C73.7148 139.211 72.3542 139.729 70.7123 139.679C69.4116 139.639 68.3248 139.237 67.4519 138.474C66.5787 137.721 66.086 136.745 65.9736 135.546L68.3884 135.621C68.4873 136.222 68.7501 136.694 69.1771 137.038C69.604 137.382 70.1479 137.564 70.809 137.585C71.7578 137.614 72.5149 137.291 73.08 136.614C73.6448 135.949 73.946 135.008 73.9835 133.793C74.0217 132.556 73.7797 131.583 73.2573 130.873C72.724 130.174 71.9616 129.809 70.9701 129.778C70.1918 129.754 69.5448 129.969 69.0292 130.422C68.5133 130.887 68.2275 131.502 68.1718 132.269L70.7146 132.347L70.6573 134.202L65.8756 134.055Z" fill="white"/>
<path d="M51.4953 129.883L52.1371 127.955L56.7065 129.476L56.0647 131.404L51.4953 129.883Z" fill="white"/>
<path d="M38.1409 130.486L33.712 127.411C32.8358 126.802 32.2587 126.109 31.9805 125.332C31.6874 124.557 31.8147 123.775 32.3622 122.987C32.6664 122.549 33.0511 122.238 33.5162 122.054C33.9751 121.879 34.4626 121.841 34.9786 121.94C34.0647 120.825 34.0245 119.667 34.858 118.467C35.4725 117.582 36.248 117.101 37.1844 117.024C38.1148 116.956 39.04 117.241 39.96 117.88L44.6386 121.129L38.1409 130.486ZM37.2475 127.509L38.7715 125.314L36.9054 124.018C35.8715 123.3 35.1021 123.305 34.5971 124.032C34.299 124.461 34.2384 124.848 34.4154 125.191C34.5862 125.544 34.9082 125.884 35.3813 126.213L37.2475 127.509ZM39.7389 123.921L41.5093 121.371L39.446 119.939C38.9116 119.567 38.4302 119.363 38.0019 119.325C37.5648 119.282 37.1728 119.509 36.826 120.009C36.4732 120.517 36.4054 120.97 36.6227 121.367C36.8252 121.768 37.2112 122.166 37.7807 122.561L39.7389 123.921Z" fill="white"/>
<path d="M26.2897 121.748L22.463 117.572C21.6991 116.739 21.2724 115.878 21.1827 114.991C21.0931 114.104 21.4493 113.293 22.2515 112.558C22.7391 112.111 23.2757 111.836 23.8616 111.733C24.4395 111.638 24.9981 111.726 25.5373 111.999C25.0237 111.139 25.2981 110.128 26.3604 108.966C26.3998 108.93 26.5144 108.81 26.7045 108.607C26.8946 108.404 27.0453 108.237 27.1567 108.106C27.2602 107.982 27.3877 107.829 27.5391 107.647C27.6905 107.465 27.8036 107.296 27.8783 107.141C27.953 106.986 27.9891 106.851 27.9865 106.738L29.7376 108.649C29.6695 108.827 29.5554 109.019 29.3955 109.223C29.2277 109.435 29.0052 109.689 28.728 109.987C28.4429 110.291 28.2847 110.458 28.2532 110.487C27.7211 111.09 27.4491 111.614 27.4372 112.059C27.4181 112.496 27.6788 113.01 28.2193 113.599L29.7219 115.239L33.013 112.223L34.6885 114.052L26.2897 121.748ZM26.0651 118.59L28.3889 116.461L26.7891 114.715C26.3207 114.204 25.8781 113.879 25.4614 113.74C25.0296 113.6 24.5778 113.746 24.1059 114.179C23.6655 114.582 23.4964 114.998 23.5986 115.425C23.6935 115.844 23.9572 116.29 24.3896 116.762L26.0651 118.59Z" fill="white"/>
<path d="M13.3178 104.961L21.109 95.5676L22.4017 97.851L20.6294 99.8841L22.7183 103.574L25.3893 103.128L26.6506 105.356L14.587 107.203L13.3178 104.961ZM19.3416 101.312L16.3929 104.71L20.8315 103.943L19.3416 101.312Z" fill="white"/>
<path d="M20.1874 93.7509L9.27489 97.0211L8.54462 94.5841L14.5097 87.9026L7.1989 90.0934L6.50997 87.7945L17.4225 84.5243L18.139 86.9153L12.1678 93.632L19.4939 91.4366L20.1874 93.7509Z" fill="white"/>
<path d="M16.5646 81.006L5.18924 81.6211L4.94043 77.0198C4.84483 75.2517 5.26135 73.8672 6.18999 72.8663C7.11806 71.8547 8.49808 71.2994 10.3301 71.2003C12.1621 71.1013 13.5939 71.5045 14.6257 72.4102C15.6568 73.3051 16.2202 74.6366 16.3158 76.4047L16.5646 81.006ZM14.3538 78.6419L14.2553 76.8206C14.136 74.6158 12.8729 73.5785 10.4657 73.7087C9.30474 73.7714 8.43035 74.0965 7.84253 74.6837C7.24349 75.2609 6.97392 76.1034 7.03381 77.2111L7.1323 79.0324L14.3538 78.6419Z" fill="white"/>
<path d="M5.26591 63.8604L16.5767 65.2182L16.2773 67.7123L4.9665 66.3545L5.26591 63.8604Z" fill="white"/>
<path d="M16.8976 61.1916L6.01009 57.8391L6.75876 55.4077L15.4324 53.1734L8.1384 50.9273L8.8447 48.6336L19.7322 51.9862L18.9977 54.3716L10.2993 56.6319L17.6086 58.8826L16.8976 61.1916Z" fill="white"/>
<path d="M20.586 37.109L25.9012 40.2226L25.1005 41.5894L23.861 41.1414C24.3316 42.4061 24.2057 43.655 23.4832 44.8884C22.6799 46.2597 21.5536 47.0957 20.1042 47.3964C18.6548 47.697 17.1754 47.4052 15.6659 46.521C14.1473 45.6314 13.1736 44.4553 12.7447 42.9926C12.3067 41.5245 12.5028 40.0818 13.3331 38.6644C13.9909 37.5415 14.8637 36.7796 15.9517 36.3784C17.0304 35.9719 18.1229 36.0062 19.2292 36.4812L18.0081 38.5658C17.4334 38.3652 16.8928 38.3699 16.3864 38.5801C15.8801 38.7904 15.4598 39.1808 15.1255 39.7514C14.6456 40.5706 14.5674 41.3901 14.8907 42.2099C15.2047 43.0243 15.8864 43.7389 16.9356 44.3535C18.0033 44.9789 18.9737 45.2322 19.8469 45.1132C20.7163 44.9797 21.4017 44.4849 21.9031 43.629C22.2967 42.9571 22.4177 42.2862 22.2661 41.6164C22.1053 40.9412 21.7017 40.3957 21.0552 39.9799L19.7693 42.1751L18.1679 41.2369L20.586 37.109Z" fill="white"/>
<path d="M31.1636 26.3726L32.5473 27.8606L29.0204 31.1401L27.6367 29.652L31.1636 26.3726Z" fill="white"/>
<path d="M36.8824 14.3608L41.6968 11.9327C42.6492 11.4524 43.5335 11.2752 44.3496 11.4012C45.1705 11.5128 45.7971 11.9972 46.2294 12.8544C46.4695 13.3306 46.5595 13.8169 46.4992 14.3132C46.4341 14.8 46.2353 15.2467 45.9027 15.6533C47.3186 15.3813 48.3555 15.8977 49.0136 17.2024C49.4987 18.1644 49.5519 19.0753 49.1733 19.9353C48.7898 20.7857 48.0981 21.4631 47.0981 21.9674L42.0123 24.5324L36.8824 14.3608ZM39.9257 14.9942L41.1289 17.38L43.1575 16.3569C44.2813 15.7901 44.6439 15.1115 44.2452 14.321C44.0099 13.8543 43.699 13.6169 43.3125 13.6087C42.9213 13.5909 42.4686 13.7118 41.9543 13.9711L39.9257 14.9942ZM41.8926 18.8943L43.2903 21.6658L45.5332 20.5346C46.1142 20.2416 46.5233 19.9158 46.7606 19.5572C47.0074 19.1938 46.9939 18.7407 46.7201 18.1978C46.4415 17.6454 46.0756 17.37 45.6225 17.3716C45.174 17.3588 44.6403 17.5086 44.0212 17.8208L41.8926 18.8943Z" fill="white"/>
<path d="M50.5633 7.93825L56.0676 6.60265C57.1664 6.33604 58.1259 6.37761 58.9462 6.72738C59.7664 7.07716 60.3049 7.7807 60.5614 8.83802C60.7174 9.4807 60.6989 10.0834 60.5062 10.646C60.3109 11.1983 59.9637 11.6448 59.4647 11.9854C60.4661 11.9509 61.2191 12.6793 61.7236 14.1703C61.7361 14.2222 61.7855 14.3803 61.8716 14.6448C61.9578 14.9093 62.0313 15.1219 62.0923 15.2828C62.1507 15.4332 62.2232 15.6187 62.3096 15.8392C62.3961 16.0597 62.4892 16.2402 62.5892 16.3806C62.6891 16.521 62.7893 16.6174 62.8898 16.6698L60.3709 17.281C60.2478 17.1353 60.1353 16.9431 60.0334 16.7043C59.9291 16.4553 59.8136 16.1375 59.6869 15.7512C59.5577 15.3545 59.4881 15.1354 59.478 15.0939C59.2065 14.3366 58.8787 13.8453 58.4948 13.6202C58.1212 13.3925 57.5457 13.373 56.7683 13.5617L54.607 14.0861L55.6597 18.4242L53.2496 19.009L50.5633 7.93825ZM53.4374 9.26596L54.1807 12.3291L56.4819 11.7707C57.1557 11.6072 57.654 11.3765 57.9769 11.0787C58.3076 10.7679 58.3975 10.3016 58.2466 9.6796C58.1057 9.09911 57.8236 8.75048 57.4001 8.63372C56.987 8.51443 56.4694 8.53025 55.8475 8.68116L53.4374 9.26596Z" fill="white"/>
<path d="M71.2365 4.65688L75.7481 15.9966L73.1245 16.0371L72.1893 13.5072L67.9498 13.5727L67.0612 16.1307L64.5015 16.1702L68.6608 4.69665L71.2365 4.65688ZM71.5532 11.6928L69.9839 7.47656L68.5296 11.7395L71.5532 11.6928Z" fill="white"/>
<path d="M78.033 16.0308L80.4232 4.89234L82.9105 5.4261L85.8929 13.8718L87.4942 6.4097L89.8408 6.91325L87.4506 18.0517L85.0101 17.528L81.9998 9.05991L80.3952 16.5377L78.033 16.0308Z" fill="white"/>
<path d="M91.0764 18.9976L96.0167 8.73258L100.169 10.7309C101.764 11.4988 102.777 12.5307 103.207 13.8267C103.646 15.1272 103.468 16.6041 102.673 18.2573C101.877 19.9104 100.834 20.971 99.5433 21.4389C98.2623 21.9115 96.824 21.7638 95.2285 20.9959L91.0764 18.9976ZM94.2131 18.1989L95.8566 18.9899C97.8462 19.9474 99.3637 19.3401 100.409 17.1679C100.913 16.1202 101.05 15.1974 100.818 14.3994C100.601 13.5964 99.9925 12.9544 98.9929 12.4733L97.3494 11.6823L94.2131 18.1989Z" fill="white"/>
<path d="M111.348 17.2229L104.714 26.4841L102.672 25.0213L109.306 15.7601L111.348 17.2229Z" fill="white"/>
<path d="M108.004 28.6146L116.146 20.6475L117.926 22.4659L115.749 31.1542L121.204 25.8167L122.883 27.5322L114.74 35.4993L112.994 33.7152L115.16 24.9928L109.693 30.3415L108.004 28.6146Z" fill="white"/>
<path d="M127.654 43.7042L122.373 46.8763L121.558 45.5184L122.545 44.6453C121.21 44.4521 120.174 43.7429 119.438 42.5176C118.619 41.1552 118.426 39.766 118.857 38.3498C119.288 36.9337 120.253 35.7753 121.752 34.8744C123.261 33.9681 124.76 33.6774 126.249 34.0023C127.748 34.3216 128.92 35.1853 129.766 36.5935C130.436 37.709 130.686 38.8403 130.517 39.9874C130.356 41.129 129.802 42.0713 128.855 42.8145L127.611 40.7435C128.063 40.3353 128.318 39.8586 128.376 39.3135C128.434 38.7683 128.293 38.2123 127.953 37.6454C127.464 36.8316 126.782 36.37 125.908 36.2607C125.042 36.1459 124.088 36.4016 123.046 37.0278C121.985 37.665 121.298 38.3952 120.984 39.2186C120.684 40.0456 120.79 40.8843 121.301 41.7346C121.702 42.4021 122.232 42.8299 122.893 43.018C123.562 43.2006 124.235 43.1078 124.909 42.7398L123.599 40.559L125.19 39.6033L127.654 43.7042Z" fill="white"/>
<path d="M131.92 57.9464L129.95 58.4481L128.761 53.7811L130.731 53.2795L131.92 57.9464Z" fill="white"/>
</svg>
