<svg width="145" height="145" viewBox="0 0 145 145" fill="none" xmlns="http://www.w3.org/2000/svg">
<path d="M140.017 73.7035L139.67 76.1914L131.748 76.9274L139.142 79.9787L138.817 82.3081L130.78 83.1735L138.283 86.1271L137.943 88.5675L127.085 83.9502L127.43 81.4782L135.401 80.6198L127.965 77.6433L128.317 75.1237L140.017 73.7035Z" fill="#0ABAB5"/>
<path d="M133.303 101.175L131.403 100.412L133.66 94.7841L131.358 93.8609L129.286 99.0287L127.459 98.2961L129.532 93.1283L126.933 92.0859L124.634 97.818L122.689 97.0377L125.911 89.0039L136.484 93.2448L133.303 101.175Z" fill="#0ABAB5"/>
<path d="M131.075 105.765L128.065 110.238C127.47 111.123 126.785 111.71 126.012 112C125.241 112.304 124.458 112.188 123.661 111.652C123.219 111.355 122.902 110.975 122.712 110.512C122.531 110.056 122.485 109.569 122.576 109.052C121.475 109.982 120.318 110.039 119.105 109.223C118.212 108.622 117.719 107.853 117.629 106.918C117.547 105.989 117.819 105.059 118.444 104.13L121.624 99.4046L131.075 105.765ZM128.111 106.701L125.895 105.21L124.626 107.095C123.924 108.139 123.939 108.908 124.674 109.402C125.108 109.694 125.495 109.749 125.836 109.567C126.186 109.391 126.521 109.064 126.843 108.586L128.111 106.701ZM124.488 104.263L121.912 102.53L120.51 104.614C120.147 105.154 119.949 105.638 119.918 106.067C119.88 106.505 120.114 106.893 120.618 107.233C121.132 107.578 121.586 107.639 121.98 107.416C122.377 107.208 122.77 106.816 123.157 106.241L124.488 104.263Z" fill="#0ABAB5"/>
<path d="M114.23 120.995L115.922 119.339C116.782 120.08 117.692 119.98 118.652 119.04C119.064 118.638 119.306 118.237 119.378 117.838C119.45 117.454 119.345 117.117 119.061 116.827C118.964 116.728 118.863 116.655 118.758 116.609C118.653 116.563 118.525 116.546 118.374 116.56C118.23 116.581 118.094 116.609 117.966 116.646C117.844 116.69 117.678 116.763 117.465 116.866C117.253 116.985 117.063 117.088 116.896 117.177C116.722 117.273 116.483 117.41 116.179 117.588C115.875 117.766 115.606 117.917 115.371 118.043C114.346 118.597 113.472 118.893 112.747 118.931C112.015 118.976 111.336 118.678 110.709 118.037C110.254 117.572 109.95 117.071 109.798 116.534C109.653 116.004 109.643 115.476 109.77 114.95C109.896 114.438 110.109 113.946 110.408 113.474C110.692 113.002 111.052 112.554 111.486 112.128C112.592 111.047 113.703 110.452 114.821 110.343C115.938 110.25 116.952 110.661 117.862 111.576L116.09 113.31C115.06 112.318 113.946 112.408 112.749 113.579C112.284 114.034 112.011 114.488 111.931 114.939C111.85 115.406 111.974 115.807 112.303 116.143C112.579 116.425 112.906 116.507 113.284 116.391C113.655 116.282 114.349 115.954 115.365 115.407C115.419 115.369 115.46 115.344 115.491 115.329C115.521 115.314 115.559 115.292 115.605 115.262C115.658 115.24 115.703 115.218 115.741 115.196C116.09 115.003 116.333 114.87 116.47 114.796C116.614 114.73 116.845 114.623 117.163 114.476C117.474 114.336 117.716 114.248 117.89 114.212C118.064 114.176 118.291 114.141 118.57 114.106C118.842 114.079 119.076 114.097 119.271 114.159C119.474 114.229 119.699 114.33 119.947 114.461C120.194 114.607 120.43 114.794 120.653 115.023C121.377 115.763 121.669 116.633 121.53 117.635C121.391 118.637 120.849 119.6 119.903 120.525C118.988 121.42 118.029 121.934 117.024 122.066C116.027 122.206 115.095 121.849 114.23 120.995Z" fill="#0ABAB5"/>
<path d="M110.784 127.864L104.218 118.555L106.27 117.107L112.836 126.417L110.784 127.864Z" fill="#0ABAB5"/>
<path d="M98.5016 134.801L97.5645 132.89L100.639 131.382L96.5593 123.065L98.8147 121.959L102.894 130.276L105.968 128.768L106.905 130.679L98.5016 134.801Z" fill="#0ABAB5"/>
<path d="M85.5659 138.827L85.0452 136.847L90.91 135.305L90.2795 132.906L84.8944 134.322L84.3941 132.419L89.7792 131.003L89.0673 128.295L83.0943 129.865L82.5614 127.838L90.933 125.637L93.8292 136.655L85.5659 138.827Z" fill="#0ABAB5"/>
<path d="M72.0538 136.767L74.4183 136.639C74.5752 137.763 75.3247 138.288 76.6667 138.216C77.2419 138.185 77.6882 138.043 78.0057 137.791C78.3132 137.55 78.456 137.227 78.4341 136.822C78.4266 136.684 78.3987 136.563 78.3503 136.458C78.3019 136.354 78.2166 136.257 78.0942 136.168C77.9725 136.089 77.8513 136.021 77.7307 135.963C77.6106 135.916 77.4367 135.861 77.209 135.799C76.9713 135.748 76.7604 135.7 76.5764 135.657C76.3818 135.614 76.1118 135.559 75.7664 135.492C75.4209 135.426 75.1184 135.362 74.8587 135.301C73.7231 135.042 72.8707 134.688 72.3016 134.238C71.7218 133.788 71.4077 133.116 71.3593 132.222C71.3242 131.572 71.4265 130.995 71.6663 130.491C71.9067 129.997 72.2481 129.594 72.6905 129.281C73.1229 128.98 73.6072 128.751 74.1435 128.594C74.6686 128.427 75.2347 128.327 75.8418 128.294C77.3862 128.21 78.6141 128.497 79.5255 129.152C80.4268 129.819 80.9177 130.797 80.998 132.085L78.5216 132.219C78.4019 130.794 77.5059 130.127 75.8336 130.217C75.1839 130.252 74.6799 130.413 74.3215 130.7C73.953 130.997 73.7814 131.38 73.8068 131.849C73.8281 132.243 74.0194 132.521 74.3807 132.683C74.7313 132.846 75.4691 133.057 76.5941 133.317C76.6586 133.324 76.7071 133.332 76.7396 133.341C76.7721 133.35 76.8153 133.358 76.8692 133.366C76.9236 133.384 76.9724 133.398 77.0155 133.406C77.4047 133.492 77.675 133.552 77.8265 133.586C77.9785 133.632 78.2227 133.704 78.5592 133.803C78.8851 133.903 79.1252 133.997 79.2795 134.085C79.4338 134.173 79.6274 134.296 79.8603 134.454C80.0825 134.613 80.2465 134.78 80.3521 134.956C80.4583 135.143 80.5612 135.367 80.6609 135.628C80.7504 135.901 80.8038 136.198 80.8211 136.517C80.8769 137.55 80.5222 138.397 79.7567 139.058C78.9913 139.719 77.9482 140.085 76.6275 140.157C75.3493 140.226 74.2891 139.979 73.4468 139.415C72.6051 138.863 72.1407 137.98 72.0538 136.767Z" fill="#0ABAB5"/>
<path d="M57.3081 132.259L57.7571 130.277L62.4541 131.342L62.005 133.323L57.3081 132.259Z" fill="#0ABAB5"/>
<path d="M44.6442 134.797L42.4909 133.503L44.915 125.926L39.2129 131.534L37.1967 130.323L39.5468 122.589L33.8912 128.337L31.779 127.068L40.2787 118.885L42.4183 120.17L40.0874 127.841L45.7375 122.164L47.9182 123.474L44.6442 134.797Z" fill="#0ABAB5"/>
<path d="M22.009 117.893L23.4518 116.44L27.7553 120.712L29.5025 118.952L25.5511 115.029L26.9376 113.633L30.889 117.556L32.8617 115.569L28.4788 111.217L29.9555 109.73L36.0984 115.828L28.0724 123.913L22.009 117.893Z" fill="#0ABAB5"/>
<path d="M18.7106 114.135L15.7497 109.629C15.1639 108.738 14.8871 107.879 14.9193 107.054C14.9366 106.226 15.3465 105.548 16.1488 105.021C16.5945 104.728 17.0673 104.583 17.5673 104.587C18.0583 104.596 18.5248 104.743 18.9667 105.027C18.535 103.651 18.9298 102.562 20.1511 101.759C21.0515 101.168 21.9504 101.011 22.848 101.289C23.7366 101.573 24.4884 102.183 25.1034 103.119L28.2313 107.88L18.7106 114.135ZM18.9931 111.04L21.2262 109.573L19.9785 107.674C19.2874 106.622 18.5718 106.339 17.8319 106.825C17.3951 107.112 17.1947 107.448 17.2305 107.833C17.2575 108.224 17.4292 108.66 17.7455 109.141L18.9931 111.04ZM22.6436 108.641L25.2377 106.937L23.8583 104.837C23.501 104.294 23.1307 103.924 22.7474 103.729C22.3582 103.526 21.9096 103.591 21.4014 103.925C20.8844 104.264 20.6525 104.659 20.7057 105.109C20.7441 105.556 20.9537 106.069 21.3344 106.649L22.6436 108.641Z" fill="#0ABAB5"/>
<path d="M11.2018 92.6996L12.0668 94.904C11.0494 95.4064 10.7862 96.2831 11.2771 97.5342C11.4875 98.0704 11.7624 98.4496 12.1016 98.6717C12.427 98.8877 12.7784 98.9217 13.1557 98.7736C13.2848 98.723 13.3912 98.6583 13.4749 98.5796C13.5586 98.5009 13.6237 98.3895 13.6702 98.2452C13.7068 98.1048 13.7334 97.9683 13.7502 97.8357C13.7569 97.7069 13.7542 97.5247 13.7418 97.2889C13.7157 97.0471 13.6943 96.832 13.6777 96.6437C13.6572 96.4455 13.6244 96.172 13.5791 95.823C13.5339 95.4741 13.4992 95.1669 13.4752 94.9013C13.3639 93.7418 13.4324 92.8212 13.6805 92.1394C13.9247 91.4478 14.4638 90.9383 15.2979 90.6109C15.9036 90.3732 16.4835 90.2889 17.0377 90.3579C17.5819 90.4308 18.0719 90.6281 18.5075 90.9499C18.9293 91.2656 19.2992 91.6533 19.6171 92.1129C19.941 92.5587 20.214 93.0646 20.4361 93.6306C21.0011 95.0704 21.1157 96.326 20.7799 97.3973C20.4302 98.4627 19.6566 99.2361 18.4591 99.7175L17.5531 97.4089C18.8681 96.8471 19.2197 95.7867 18.6079 94.2277C18.3702 93.622 18.059 93.1941 17.6744 92.944C17.276 92.6879 16.8583 92.6455 16.4214 92.817C16.054 92.9611 15.8502 93.2302 15.81 93.6241C15.7659 94.0081 15.7975 94.7749 15.9049 95.9244C15.9183 95.9879 15.9259 96.0365 15.9277 96.0702C15.9295 96.1038 15.9351 96.1475 15.9447 96.201C15.9443 96.2584 15.9469 96.309 15.9526 96.3526C15.9936 96.749 16.0215 97.0245 16.0363 97.1791C16.0412 97.3376 16.0495 97.5922 16.061 97.9429C16.0687 98.2836 16.0551 98.541 16.0203 98.7151C15.9855 98.8892 15.9296 99.1117 15.8526 99.3825C15.7716 99.6435 15.6643 99.8518 15.5305 100.007C15.3869 100.167 15.2065 100.335 14.9895 100.512C14.7586 100.683 14.4942 100.827 14.1963 100.943C13.2331 101.321 12.3175 101.251 11.4493 100.732C10.5812 100.214 9.90551 99.3387 9.42233 98.1074C8.95473 96.9159 8.85585 95.8318 9.12569 94.855C9.3856 93.8822 10.0776 93.1637 11.2018 92.6996Z" fill="#0ABAB5"/>
<path d="M6.23932 86.9658L17.3686 84.5332L17.905 86.9873L6.77573 89.4199L6.23932 86.9658Z" fill="#0ABAB5"/>
<path d="M4.62372 72.7968L6.74861 72.6819L6.93349 76.1009L16.184 75.6007L16.3196 78.109L7.06913 78.6092L7.254 82.0282L5.12911 82.1431L4.62372 72.7968Z" fill="#0ABAB5"/>
<path d="M5.97156 59.1701L7.99766 59.4687L7.11336 65.4679L9.56685 65.8296L10.3788 60.3211L12.3258 60.6081L11.5138 66.1166L14.2839 66.5249L15.1845 60.4149L17.2581 60.7206L15.9958 69.284L4.72559 67.6228L5.97156 59.1701Z" fill="#0ABAB5"/>
<path d="M13.1162 47.5633L12.3094 49.7896C11.2137 49.4946 10.4368 49.9789 9.97888 51.2424C9.78261 51.784 9.73845 52.2501 9.84641 52.641C9.94797 53.0182 10.1893 53.2758 10.5704 53.4139C10.7007 53.4612 10.8233 53.4829 10.9381 53.4791C11.053 53.4754 11.1755 53.4347 11.3057 53.3571C11.4259 53.2758 11.5361 53.191 11.6363 53.1025C11.7264 53.0103 11.8447 52.8717 11.9912 52.6865C12.1314 52.4877 12.2574 52.3122 12.3693 52.1598C12.4849 51.9975 12.6409 51.7704 12.8375 51.4786C13.034 51.1868 13.211 50.9332 13.3684 50.718C14.0509 49.774 14.7104 49.1281 15.3471 48.7802C15.9874 48.4223 16.7287 48.396 17.5711 48.7013C18.1828 48.923 18.6739 49.2428 19.0443 49.6607C19.4047 50.075 19.6422 50.5468 19.7567 51.0761C19.8647 51.5918 19.8863 52.1272 19.8213 52.6823C19.7699 53.2309 19.6406 53.7911 19.4335 54.3627C18.9065 55.8168 18.163 56.8351 17.2031 57.4175C16.2368 57.9863 15.1451 58.0558 13.9281 57.6261L14.7731 55.2945C16.1314 55.7414 17.0959 55.1776 17.6665 53.6032C17.8882 52.9914 17.9373 52.4646 17.8138 52.0228C17.6839 51.5673 17.3984 51.2596 16.9571 51.0996C16.5861 50.9652 16.2553 51.0325 15.9649 51.3016C15.6781 51.5608 15.1953 52.1573 14.5165 53.0912C14.4846 53.1477 14.4583 53.1892 14.4373 53.2157C14.4164 53.2421 14.3918 53.2786 14.3636 53.3251C14.3254 53.368 14.294 53.4077 14.2694 53.4441C14.0383 53.7688 13.8772 53.9941 13.7862 54.1199C13.6852 54.2422 13.5232 54.4387 13.3002 54.7096C13.0809 54.9705 12.9006 55.1548 12.7595 55.2625C12.6184 55.3701 12.4294 55.5002 12.1926 55.6527C11.9595 55.7951 11.7413 55.8805 11.5381 55.909C11.3249 55.9338 11.0784 55.9409 10.7986 55.9303C10.5124 55.906 10.2189 55.8393 9.91806 55.7303C8.94531 55.3777 8.30441 54.72 7.99535 53.757C7.6863 52.7941 7.75711 51.6909 8.20779 50.4474C8.64394 49.244 9.28593 48.3648 10.1338 47.8098C10.9716 47.2512 11.9657 47.169 13.1162 47.5633Z" fill="#0ABAB5"/>
<path d="M22.7906 36.1143L24.4425 37.2975L21.6381 41.2127L19.9861 40.0295L22.7906 36.1143Z" fill="#0ABAB5"/>
<path d="M25.4212 23.3277L27.4472 21.8427L33.4965 27.01L30.5313 19.5819L32.4283 18.1914L38.6505 23.3511L35.5382 15.9117L37.5255 14.455L41.7828 25.4591L39.7697 26.9348L33.5982 21.8172L36.6468 29.2239L34.595 30.7279L25.4212 23.3277Z" fill="#0ABAB5"/>
<path d="M49.9385 8.90608L50.7151 10.8011L45.104 13.1006L46.0444 15.3954L51.1965 13.284L51.9428 15.105L46.7907 17.2164L47.8524 19.8073L53.5672 17.4653L54.362 19.4048L46.3525 22.6872L42.0326 12.146L49.9385 8.90608Z" fill="#0ABAB5"/>
<path d="M54.4908 7.36943L59.7949 6.39972C60.8441 6.20789 61.7425 6.28763 62.4898 6.63895C63.2458 6.97786 63.7101 7.61949 63.8827 8.56384C63.9786 9.08848 63.9276 9.58034 63.7296 10.0394C63.5297 10.488 63.2128 10.8604 62.779 11.1566C64.214 11.2955 65.063 12.0836 65.3258 13.5211C65.5195 14.5809 65.3133 15.4698 64.7073 16.1879C64.0993 16.8954 63.2444 17.3499 62.1427 17.5513L56.5395 18.5757L54.4908 7.36943ZM57.2313 8.83649L57.7118 11.4649L59.9468 11.0563C61.1849 10.83 61.7244 10.2813 61.5652 9.41043C61.4712 8.89629 61.24 8.58072 60.8716 8.46373C60.5013 8.33624 60.0329 8.3243 59.4662 8.42789L57.2313 8.83649ZM58.0168 13.1333L58.5751 16.1867L61.0461 15.7349C61.6862 15.6179 62.1706 15.4209 62.4995 15.1439C62.8389 14.865 62.9539 14.4265 62.8446 13.8284C62.7333 13.2198 62.4601 12.8523 62.0249 12.7258C61.5983 12.5869 61.044 12.5798 60.362 12.7045L58.0168 13.1333Z" fill="#0ABAB5"/>
<path d="M77.6146 8.80718L75.2477 8.73408C75.1866 7.60099 74.4844 7.01369 73.1411 6.9722C72.5653 6.95442 72.1086 7.0577 71.7709 7.28205C71.4441 7.49606 71.2745 7.80564 71.2619 8.21078C71.2577 8.34938 71.2752 8.47265 71.3146 8.58058C71.3539 8.68851 71.4307 8.79227 71.5451 8.89185C71.6597 8.98076 71.7747 9.05901 71.89 9.12661C72.0056 9.18354 72.1742 9.25277 72.3958 9.33432C72.6284 9.40553 72.8345 9.47059 73.0141 9.5295C73.2043 9.58874 73.4687 9.66627 73.8073 9.7621C74.1458 9.85793 74.4419 9.94711 74.6954 10.0296C75.805 10.3841 76.6243 10.8096 77.1532 11.3061C77.6928 11.803 77.9487 12.4993 77.9211 13.3948C77.901 14.0452 77.7501 14.6115 77.4684 15.0937C77.1871 15.5652 76.8127 15.9378 76.3454 16.2115C75.889 16.4749 75.387 16.6622 74.8393 16.7733C74.3019 16.8954 73.7294 16.9471 73.1217 16.9284C71.5758 16.8806 70.3765 16.4914 69.524 15.7607C68.6825 15.0197 68.2763 14.004 68.3055 12.7137L70.7843 12.7902C70.7829 14.2202 71.6191 14.961 73.2929 15.0127C73.9433 15.0328 74.4591 14.9153 74.8405 14.6603C75.2329 14.395 75.4364 14.0278 75.4508 13.5586C75.463 13.1642 75.296 12.8709 74.9498 12.6788C74.6142 12.487 73.8969 12.214 72.798 11.8599C72.7344 11.8473 72.6867 11.8352 72.6551 11.8235C72.6234 11.8119 72.5811 11.7999 72.5281 11.7876C72.4755 11.7646 72.428 11.7471 72.3857 11.7352C72.0051 11.6167 71.7409 11.5338 71.593 11.4866C71.4454 11.4286 71.2081 11.3359 70.8812 11.2085C70.565 11.0813 70.3337 10.9674 70.1874 10.8669C70.0411 10.7663 69.8587 10.6273 69.64 10.4498C69.4321 10.2726 69.2829 10.0919 69.1926 9.9077C69.1025 9.71283 69.019 9.48081 68.9419 9.21163C68.8759 8.93213 68.8478 8.63245 68.8577 8.3126C68.8896 7.27843 69.3149 6.46451 70.1336 5.87083C70.9524 5.27716 72.0227 5.00074 73.3448 5.04157C74.6242 5.08109 75.6596 5.41721 76.4511 6.04995C77.243 6.67203 77.6308 7.5911 77.6146 8.80718Z" fill="#0ABAB5"/>
<path d="M84.8683 6.48319L82.7339 17.6735L80.2664 17.2028L82.4008 6.01254L84.8683 6.48319Z" fill="#0ABAB5"/>
<path d="M98.3706 10.487L97.6455 12.4876L94.4264 11.3209L91.2698 20.0306L88.9082 19.1746L92.0648 10.465L88.8457 9.29831L89.5707 7.29765L98.3706 10.487Z" fill="#0ABAB5"/>
<path d="M110.248 16.9839L109.18 18.7317L104.005 15.5709L102.713 17.6874L107.464 20.5896L106.439 22.2691L101.687 19.3669L100.227 21.7564L105.498 24.9756L104.406 26.7643L97.0184 22.2525L102.956 12.5304L110.248 16.9839Z" fill="#0ABAB5"/>
<path d="M117.995 27.9246L116.255 26.3185C116.951 25.4225 116.806 24.5188 115.818 23.6071C115.395 23.2165 114.982 22.9952 114.58 22.9433C114.193 22.8909 113.862 23.0136 113.587 23.3114C113.493 23.4133 113.425 23.5179 113.384 23.6252C113.343 23.7325 113.333 23.8613 113.354 24.0114C113.383 24.1537 113.418 24.2881 113.461 24.4147C113.511 24.5335 113.593 24.6963 113.707 24.9031C113.836 25.1093 113.949 25.2935 114.046 25.4557C114.151 25.6251 114.3 25.8569 114.493 26.1511C114.686 26.4454 114.851 26.7067 114.989 26.9352C115.595 27.9301 115.935 28.7883 116.009 29.51C116.091 30.2389 115.828 30.9326 115.22 31.591C114.779 32.0691 114.294 32.3979 113.765 32.5776C113.243 32.7494 112.717 32.7856 112.184 32.6861C111.667 32.586 111.165 32.3985 110.678 32.1236C110.192 31.8637 109.726 31.5276 109.279 31.1152C108.143 30.0661 107.492 28.9863 107.327 27.8757C107.177 26.7645 107.535 25.7311 108.403 24.7755L110.225 26.4577C109.287 27.5369 109.433 28.6445 110.664 29.7804C111.142 30.2217 111.609 30.471 112.064 30.5283C112.534 30.585 112.928 30.4409 113.247 30.096C113.515 29.806 113.581 29.475 113.445 29.103C113.317 28.7382 112.954 28.0621 112.356 27.0745C112.316 27.0232 112.288 26.9828 112.272 26.9533C112.256 26.9238 112.232 26.887 112.2 26.843C112.175 26.7911 112.15 26.7468 112.126 26.71C111.917 26.3712 111.771 26.1354 111.69 26.0028C111.617 25.8623 111.498 25.6368 111.335 25.3263C111.179 25.0231 111.079 24.7855 111.035 24.6137C110.99 24.4418 110.943 24.2173 110.895 23.9399C110.854 23.6698 110.859 23.4356 110.912 23.2372C110.971 23.031 111.06 22.801 111.179 22.5472C111.312 22.2928 111.487 22.048 111.704 21.8128C112.406 21.0526 113.26 20.7164 114.268 20.8045C115.275 20.8925 116.265 21.3851 117.237 22.2823C118.178 23.1505 118.739 24.0829 118.923 25.0795C119.113 26.0683 118.804 27.0167 117.995 27.9246Z" fill="#0ABAB5"/>
<path d="M125.13 41.7092L123.396 42.7684L120.885 38.6583L122.619 37.5992L125.13 41.7092Z" fill="#0ABAB5"/>
<path d="M135.788 48.984L136.362 51.4296L129.239 54.9741L137.236 55.1525L137.773 57.4423L130.59 61.149L138.654 61.1964L139.216 63.5953L127.424 63.2064L126.854 60.7764L133.978 57.0999L125.969 57.0068L125.388 54.53L135.788 48.984Z" fill="#0ABAB5"/>
</svg>
