<?xml version="1.0" encoding="UTF-8"?>
<svg id="_Слой_2" data-name="Слой 2" xmlns="http://www.w3.org/2000/svg" viewBox="0 0 443.35 70.4">
  <defs>
    <style>
      .cls-1 {
        fill: #fa267a;
      }
    </style>
  </defs>
  <g id="_Слой_2-2" data-name="Слой 2">
    <g>
      <path class="cls-1" d="M443.3,70.27c-13.21,0-25.81,.05-38.42-.04-2.47-.02-4.99-.3-7.39-.87-6.71-1.58-8.94-5.26-8.49-13.55,.32-5.99,3.32-9.4,9.71-9.89,7.95-.62,15.94-.7,23.92-.98,1.95-.07,3.91-.01,5.75-.01,1.59-7.89,.25-9.61-7.11-9.64-7.83-.04-15.65,.04-23.48-.03-5.12-.05-6.21-1.46-5.45-7.49,8.01,0,16.12-.15,24.23,.05,5.96,.15,12,.2,17.82,1.31,5.63,1.08,8.74,5.48,8.86,11.23,.19,9.64,.05,19.3,.05,29.91Zm-14.56-17.9c-7.85,0-15.15-.18-22.44,.09-3.06,.11-6.54,1.46-6.02,5.17,.27,1.93,3.08,4.83,4.92,4.96,7.72,.56,15.51,.24,23.54,.24v-10.45Z"/>
      <path class="cls-1" d="M364.91,28.3q13.66-1.56,13.66,10.75c0,8.83-.15,17.65,.06,26.47,.09,3.69-1.04,5.19-4.82,4.8-2.63-.27-5.3-.05-8.9-.05,0-4.53-.18-8.78,.06-13.01,.2-3.56-1.33-4.72-4.67-4.64-5.16,.13-10.33,.18-15.48-.01-3.8-.15-4.99,1.49-4.68,5.08,.24,2.81-.06,5.66,.07,8.49,.13,2.9-.83,4.34-3.99,4.14-3.13-.2-6.28-.04-9.82-.04V27.81c3.7,0,7.47-.23,11.18,.16,.97,.1,2.37,2.08,2.48,3.3,.34,3.63,.21,7.32,.12,10.98-.07,2.52,.93,3.62,3.5,3.58,5.83-.09,11.66-.09,17.48,0,2.83,.05,3.83-1.24,3.77-3.94-.1-4.45-.03-8.91-.03-13.61Z"/>
      <path class="cls-1" d="M263.42,70.27c-.97-5.69,.17-7.24,5.38-7.31,9.16-.12,18.32-.06,27.48-.03,3.41,.01,6.52-.32,6.69-4.75,.17-4.39-3.04-5.25-6.31-5.4-5.49-.26-11,.1-16.48-.23-3.77-.22-7.67-.66-11.2-1.89-4.78-1.66-7.4-5.25-7.26-10.72,.13-5.23,2.79-8.36,7.32-10.23,1.83-.76,3.8-1.64,5.71-1.66,13.29-.14,26.58-.08,39.81-.08,1.13,5.38-.03,6.93-5.76,7.06-8.32,.18-16.66,.05-24.99,.06-1.33,0-2.94-.43-3.94,.15-1.96,1.14-4.81,2.71-5.02,4.38-.21,1.7,1.97,4.31,3.77,5.44,1.62,1.01,4.16,.63,6.3,.74,7.29,.38,14.65,.21,21.85,1.22,5.99,.84,9.32,5.34,9.51,10.63,.19,5.45-3.16,10.01-9.27,11.38-4.16,.93-8.55,1.1-12.85,1.17-10.28,.16-20.57,.05-30.75,.05Z"/>
      <path class="cls-1" d="M89.09,70.33c-.35-1.86-.94-3.72-1.01-5.59-.4-10.82-.61-21.64-1.01-32.46-.55-15.23-12.55-26.89-27.75-27.01-7.17-.06-14.38,.54-21.49-.12C19.87,3.45,3.56,16.31,5.25,38.69c1.02,13.48,11.97,25.39,25.52,26.24,7.48,.47,14.97,.62,22.46,1.04,1.74,.1,3.45,.7,5.84,1.22-1.12,1.18-1.44,1.81-1.77,1.81-10.44,.16-21.09,1.61-31.28,.07C9.6,66.58-.57,51.42,.02,33.3,.57,16.76,11.87,2.62,27.79,.98c12.15-1.26,24.66-1.34,36.8-.02,16.42,1.78,27.87,16.12,27.73,32.67-.1,11.16-.61,22.31-.99,33.46-.04,1.04-.47,2.06-.72,3.09-.5,.05-1.01,.1-1.51,.14Z"/>
      <path class="cls-1" d="M221.8,45.83c1.44,4.83-.39,6.67-4.45,6.71-6.66,.06-13.33,.25-19.98,.04-4.36-.14-6.54,1.07-6.04,5.9,.38,3.61,.07,7.29,.07,11.76-3.95,0-7.56,.24-11.1-.15-1-.11-2.55-2.07-2.56-3.2-.13-9.82-.06-19.65,.13-29.47,.09-5.01,3.55-7.63,7.88-8.32,5.71-.91,11.55-1.09,17.35-1.27,6.49-.2,13-.18,19.48,.07,1.36,.05,2.67,1.52,4,2.33-1.16,1.36-2.07,3.41-3.53,3.93-2.1,.75-4.59,.43-6.92,.49-6.48,.18-12.97,.28-19.45,.48-4.86,.15-5.37,3.43-5.29,7.31,.09,4.44,3.33,3.34,5.76,3.37,8.14,.1,16.27,.04,24.65,.04Z"/>
      <path class="cls-1" d="M78.18,69.94c-.35-4.37-.87-8.73-1.01-13.1-.24-7.15-.33-14.31-.33-21.47,.01-12.38-8.93-20.15-19.77-19.38-7.95,.57-15.97,.03-23.96,.14-9.68,.13-16.56,6.98-16.9,16.62-.54,15.11,5.77,21.72,20.93,22.09,5.82,.14,11.63,.46,17.44,.78,1.2,.07,2.38,.52,3.58,.79,.02,.48,.04,.96,.06,1.44-3.59,.42-7.16,1.03-10.76,1.22-4.98,.27-9.98,.38-14.97,.29-11.64-.21-20.67-9.66-21.6-21.29-1.47-18.26,11.58-28.63,26.35-27.36,7.27,.62,14.64,.05,21.96,.17,2.13,.03,4.32,.35,6.36,.95,9.58,2.81,15.97,11.12,15.87,21.12-.11,11.31-.6,22.62-.97,33.92-.03,1.05-.45,2.09-.69,3.13-.52-.03-1.04-.05-1.57-.08Z"/>
      <path class="cls-1" d="M58.31,46.96c-2.29,.41-4.56,1.03-6.86,1.19-5.64,.38-11.29,.56-16.94,.8-7.04,.3-12.42-4.68-12.72-11.77-.43-9.97,3.25-15.21,11.26-15.42,8.82-.22,17.65-.18,26.46,0,6.23,.13,11.12,4.41,11.17,10.52,.1,11.47-.43,22.95-.79,34.42-.04,1.16-.69,2.31-2.24,3.44-.23-1.13-.62-2.25-.67-3.39-.37-10.47-.7-20.95-1.01-31.43-.19-6.23-2.58-8.8-8.81-8.9-7.32-.12-14.65-.12-21.97,0-6,.1-8.82,3.16-8.7,9.08,.11,5.66,2.82,8.2,8.77,8.41,6.65,.24,13.29,.57,19.94,.93,1.02,.06,2.02,.5,3.03,.77,.03,.45,.06,.9,.09,1.35Z"/>
      <path class="cls-1" d="M237.39,28.5c.49-.28,.62-.41,.77-.43q13.04-1.7,13.04,11.19c0,8.66-.16,17.32,.07,25.97,.1,3.88-1.05,5.53-5.09,5.1-2.77-.3-5.6-.06-8.78-.06V28.5Z"/>
      <path class="cls-1" d="M166.58,70.33c-13.21,0-25.81,.05-38.42-.04-2.47-.02-4.99-.3-7.39-.87-6.71-1.58-8.94-5.26-8.49-13.55,.32-5.99,3.32-9.4,9.71-9.89,7.95-.62,15.94-.7,23.92-.98,1.95-.07,3.91-.01,5.75-.01,1.59-7.89,.25-9.61-7.11-9.64-7.83-.04-15.65,.04-23.48-.03-5.12-.05-6.21-1.46-5.45-7.49,8.01,0,16.12-.15,24.23,.05,5.96,.15,12,.2,17.82,1.31,5.63,1.08,8.74,5.48,8.86,11.23,.19,9.64,.05,19.3,.05,29.91Zm-14.56-17.9c-7.85,0-15.15-.18-22.44,.09-3.06,.11-6.54,1.46-6.02,5.17,.27,1.93,3.08,4.83,4.92,4.96,7.72,.56,15.51,.24,23.54,.24v-10.45Z"/>
    </g>
  </g>
</svg>