<?xml version="1.0" encoding="UTF-8"?>
<svg id="_Слой_2" data-name="Слой 2" xmlns="http://www.w3.org/2000/svg" viewBox="0 0 788.19 785.36">
  <defs>
    <style>
      .cls-1 {
        fill: #2b3a97;
      }
    </style>
  </defs>
  <g id="_Слой_4" data-name="Слой 4">
    <g>
      <path class="cls-1" d="M388.65,785.36c-14.73-1.51-33.62-2.91-52.35-5.48-37.89-5.19-74.19-16.26-108.79-32.41-33.8-15.77-64.79-36.02-92.85-60.73-26.92-23.7-50.28-50.46-69.85-80.46-24.95-38.25-42.96-79.53-53.56-124.03-4.94-20.73-7.78-41.72-9.93-62.9-2.61-25.7-.97-51.14,2.02-76.64,3.58-30.54,10.81-60.26,21.56-88.94,15.53-41.43,37.32-79.37,65.97-113.36,42.52-50.43,94.42-87.67,155.56-112.06,26.91-10.73,54.72-18.32,83.43-22.78,26.53-4.12,53.15-7.03,79.92-4.83,20.43,1.68,40.79,4.7,61.01,8.14,27.93,4.76,54.72,13.68,80.69,24.91,25.73,11.12,50.05,24.82,72.88,41.12,32.61,23.29,61.08,50.91,85.22,82.84,20.46,27.07,36.99,56.45,49.88,87.92,13.99,34.13,22.43,69.63,26.65,106.13,3.61,31.23,2.36,62.39-2.26,93.53-4.51,30.4-12.07,59.87-23.21,88.5-11.22,28.84-25.62,55.93-43.24,81.36-24.7,35.64-54.55,66.34-89.37,92.01-34.35,25.32-71.83,44.75-112.59,57.9-28.12,9.07-56.77,15.06-86.17,17.58-12.09,1.03-24.21,1.6-40.6,2.65Zm149.74-428.16c-1.08,1.57-1.89,2.99-2.92,4.22-15.44,18.33-30.85,36.68-46.41,54.9-3.92,4.59-4.9,9.23-2.23,14.67,9.32,18.96,18.75,37.86,27.84,56.92,4.03,8.46,10.81,12.34,19.57,11.86,5.65-.3,11.85-1.48,16.66-4.24,25.16-14.43,45.56-34.68,60.61-58.94,20.17-32.51,31.07-68.29,27.19-107.4-1.59-16.07-3.71-31.98-8.52-47.49-6.02-19.42-15.99-36.78-26.24-54.17-23.17-39.33-55.59-67.56-98.17-83.98-37.15-14.33-75.87-20.95-115.53-21.77-22.67-.47-45.06,2.47-67.03,8.52-39.18,10.78-70.89,32.81-97.15,63.37-21.16,24.63-38.14,51.95-53.07,80.68-16.42,31.61-25.82,65.24-28.47,100.61-2.56,34.16,1.97,67.36,15.64,99.15,10.5,24.41,24.09,46.5,42.86,65.57,14.2,14.42,29.63,27.29,45.8,39.24,14.41,10.64,29.09,21.17,44.68,29.92,25.18,14.13,52.66,21.73,81.38,25.38,27.51,3.49,54.98,4.7,82.59,1.97,26.62-2.63,52.03-10,75.78-21.94,21.34-10.73,42.16-22.63,62.41-35.3,14.31-8.95,27.99-19.25,40.7-30.37,23.33-20.41,42.21-44.76,58.2-71.29,16.5-27.38,29.68-56.2,36.18-87.68,6.41-31.02,7.43-62.32,4.09-93.84-4.1-38.65-16-74.75-35.19-108.39-17.22-30.18-39.46-56.34-65.72-79.08-23.77-20.59-49.92-37.56-78.35-51-23.8-11.25-48.5-19.95-74.16-25.99-21.38-5.04-42.88-9.4-64.88-9.82-20.41-.39-41.06-1.56-61.21,.87-21.16,2.55-42.14,7.96-62.69,13.9-52.79,15.25-100.34,40.5-141.87,76.83-24.33,21.28-45.54,45.23-63.19,72.23-28.68,43.87-47.5,91.73-56.45,143.41-4.56,26.32-5.8,52.85-4.97,79.51,.84,26.93,5.13,53.32,12.6,79.15,12.61,43.58,33.1,83.4,58.97,120.5,18.51,26.54,41,49.3,66.92,68.68,21.66,16.19,44.95,29.59,69.06,41.78,26.26,13.27,53.49,23.87,82.11,30.45,33.06,7.6,66.65,10.83,100.52,7.08,18.45-2.04,36.91-4.63,55.12-8.19,42.46-8.31,82.47-23.17,119.11-46.62,17.72-11.34,34.11-24.28,49.36-38.72,1.45-1.37,2.32-3.35,3.46-5.05-.42-.4-.83-.79-1.25-1.19-1.73,.8-3.54,1.45-5.18,2.41-23.9,14-49.07,25.44-75.06,34.72-36.91,13.17-75.12,21.15-114.22,24.24-26.13,2.07-52.36,1.3-78.24-2.29-20.65-2.86-41.13-7.57-61.36-12.73-28.89-7.38-55.64-20.1-80.89-35.87-34.52-21.57-63.51-49.25-88.74-81.02-21.3-26.83-38.48-55.82-47.56-89.2-10.36-38.07-14.33-76.74-11.36-116.1,2.95-39.06,13.75-76.1,29.32-111.84,10.46-24.01,23.38-46.66,38.05-68.4,21.18-31.41,48.53-55.87,81.58-74.01,41.58-22.83,86.51-33.77,133.62-35.88,29.52-1.32,58.87,.82,87.78,7.51,23.88,5.52,46.83,13.74,69.41,23.18,43.22,18.06,77.24,46.98,103.17,85.79,24.87,37.23,35.76,78.72,37.53,122.93,.93,23.24-1.45,46.18-8.22,68.56-12.76,42.17-36.02,76.9-72.69,101.93-12.38,8.45-25.39,15.81-40.33,19.2-19.52,4.42-40.88-6.7-47.91-21.51-7.12-15.01-15.84-29.26-23.9-43.83-2.65-4.79-3.82-4.8-7.46-.65-8.44,9.64-16.92,19.25-25.48,28.78-1.28,1.42-3.04,3.37-4.62,3.41-10.74,.3-21.49,.16-32.41,.16,.88-1.17,1.87-2.63,2.99-3.98,15.11-18.16,30.04-36.49,45.49-54.36,4.77-5.51,4.7-10.56,1.91-16.44-5.92-12.48-11.84-24.97-17.74-37.46-2.09-4.43-4.11-8.89-6.67-14.42,10.2,0,19.32-.11,28.43,.13,1.15,.03,2.68,1.68,3.31,2.94,4.41,8.78,8.66,17.64,12.89,26.5,3.17,6.64,6.14,7.16,10.94,1.48,8.04-9.53,15.85-19.25,23.91-28.77,1.4-1.66,3.47-3.8,5.31-3.87,10.06-.38,20.13-.18,30.67-.18Z"/>
      <path class="cls-1" d="M276.86,450.24c1.16-1.81,2.49-3.55,3.47-5.46,13.23-25.93,26.5-51.85,39.53-77.89,1.93-3.85,4.23-5.08,8.46-5.04,10.82,.1,21.64-.4,32.46-.64,1.59-.04,3.19,0,5.44,0-2.92,13.45-5.61,26.09-8.41,38.7-5.84,26.3-11.73,52.58-17.63,78.86-.47,2.1-.91,4.27-1.82,6.19-.53,1.13-1.91,2.54-2.99,2.61-8.11,.56-16.24,.83-25.26,1.22,4.48-21.35,8.85-42.12,13.21-62.89-.57-.26-1.14-.52-1.71-.78-1.04,1.21-2.36,2.27-3.07,3.64-9.58,18.47-19.17,36.92-28.5,55.52-1.91,3.8-4.25,5.38-8.47,5.29-8.33-.17-16.66-.03-24.99,.21-3.22,.09-4.71-.77-5.22-4.23-3.03-20.38-6.3-40.73-9.48-61.09-.1-.66,0-1.42-.29-1.96-.57-1.04-1.37-1.96-2.08-2.93-.74,.95-1.92,1.8-2.16,2.87-2.13,9.24-4.1,18.52-6.1,27.79-2.66,12.34-5.27,24.68-8.03,37-.27,1.21-1.41,3.11-2.26,3.17-9.07,.66-18.17,1.01-27.9,1.48,1.4-6.93,2.53-13.08,3.9-19.19,7.25-32.45,14.57-64.88,21.85-97.33,.11-.49,.16-.99,.27-1.47,1.88-7.74,1.89-7.61,9.99-8.03,9.8-.5,19.59-1.15,29.37-1.95,4.06-.33,5.3,1.15,5.83,5.21,3.47,26.84,7.27,53.64,10.97,80.45,.55,.21,1.09,.43,1.64,.64Z"/>
      <path class="cls-1" d="M328.05,197.01c-11.17,1.11-22.34,2.22-33.66,3.35,1.29-7.51,5-12.72,12.9-14.01,9.15-1.5,18.28-3.25,27.49-4.2,4-.41,8.24,.6,12.26,1.49,8.98,1.99,14.24,8.1,15.54,16.84,1.51,10.12,2.2,20.39,2.83,30.62,1.04,17.09,1.64,34.21,2.63,51.3,.84,14.43,2,28.85,2.89,43.28,.06,1.02-.73,2.73-1.56,3.07-8.71,3.59-17.5,6.96-26.36,10.43,0-6.79-.07-13.41,.02-20.02,.14-10.64,.31-21.28,.62-31.91,.09-3.2-.75-5.05-4.31-5.16-12.61-.39-25.21-1.01-37.82-1.22-1.59-.03-3.61,1.57-4.75,2.96-10.01,12.2-19.45,24.9-29.89,36.71-8.54,9.66-18.81,17.33-31.89,20.24-11.42,2.54-20.6-1.18-28.04-9.79-7.5-8.68-9.9-18.67-5.35-29.26,9.68-22.55,25.59-38.66,49.93-45.02,9.87-2.58,19.83-.97,29.69,.74,3.11,.54,6.21,1.18,9.26,1.99,8.07,2.14,7.04,2.7,11.19-5.28,8.51-16.37,16.98-32.77,25.38-49.2,1.01-1.97,1.47-4.23,2.18-6.35-.39-.53-.77-1.06-1.16-1.6Zm-58.75,81.67c0,.33,0,.67,0,1-10.12,0-20.23-.01-30.35,0-4.82,0-8.42,1.88-9.46,6.93-1.19,5.8-2.95,11.63-3.07,17.47-.34,16.56,16.27,26.3,31.08,18.57,.7-.37,1.34-1.01,1.8-1.67,8.76-12.3,17.56-24.57,26.18-36.97,2.43-3.5,1.61-5.03-2.73-5.28-4.47-.26-8.97-.06-13.46-.06Zm72.58-3.8c.51-.46,1.03-.93,1.54-1.39-1.46-19.94-2.93-39.88-4.39-59.82l-1.47-.64c-1.07,.88-2.48,1.55-3.14,2.67-1.77,3-3.11,6.25-4.8,9.3-6.28,11.31-12.65,22.58-18.95,33.88-2.7,4.85-2.35,5.51,3.08,7,3.67,1.01,7.32,2.13,10.94,3.31,5.74,1.86,11.46,3.8,17.18,5.7Z"/>
      <path class="cls-1" d="M565.45,320.56c-6.85,1.4-13.79,2.82-20.79,4.25,0-7.85,0-15.25,0-22.65,0-2,.21-4.04-.11-5.98-.21-1.28-1.22-2.42-1.87-3.62-1.13,.75-2.61,1.26-3.32,2.3-5.91,8.62-11.68,17.33-17.43,25.93-8.79-2.56-10.5-4.42-10.22-12.78,.4-12.1,.28-24.33,2.06-36.25,1.95-13.12,10.32-23.11,19.7-32.16,2.78-2.68,5.01-.56,7.25,.24,6.9,2.45,7.58,1.98,7.97-5.3,.47-8.96,1.11-17.92,2.03-26.84,.14-1.38,1.92-3.35,3.3-3.72,5.76-1.52,11.65-2.53,18.34-3.9-4.02,40.24-7.78,79.99-6.89,120.49Zm-33.95-64.03v38.06c1.12-.79,2.53-1.26,2.97-2.19,3.88-8.09,7.71-16.2,11.23-24.45,.58-1.35,.12-4.34-.87-4.94-3.71-2.28-7.84-3.9-13.34-6.48Z"/>
      <path class="cls-1" d="M380.68,311.17c.81-10.19,1.69-19.94,2.33-29.7,1.29-19.77,2.45-39.54,3.65-59.31,.44-7.31,.67-14.64,1.38-21.92,.16-1.6,1.59-3.8,3.01-4.42,5.76-2.53,11.74-4.54,18.15-6.94-1.17,18.62-2.3,36.73-3.49,55.67,7.3-1.7,7.75-8.65,12.48-11.37,9.58,3.09,19.32,11.64,19.03,21.94-.37,12.91-1.59,25.79-2.46,38.69-.06,.83-.46,1.66-.38,2.46,1.6,16.36-11.55,22.33-21.92,31.98,1.29-10.13,2.09-18.88,3.57-27.53,2.76-16.18,1.01-32.14-1.62-48.09-.18-1.11-1.3-2.07-1.98-3.1-.98,.76-2.19,1.34-2.91,2.3-3.05,4.05-4.86,8.52-5.09,13.73-.57,13.29-1.43,26.58-2.08,39.87-.12,2.33-.09,4.13-3.32,4.26-5.95,.24-11.89,.94-18.34,1.5Z"/>
      <path class="cls-1" d="M408.75,360.07c-2,9.61-3.98,19.33-6.05,29.03-6.5,30.38-13.16,60.73-19.43,91.16-1.04,5.06-2.84,6.88-8.08,6.47-6.68-.52-13.43-.13-20.6-.13,.84-4.22,1.62-8.42,2.51-12.59,7.62-35.57,15.34-71.12,22.78-106.73,1.01-4.85,2.92-7.34,8-7.23,6.76,.14,13.52,.03,20.87,.03Z"/>
      <path class="cls-1" d="M479.18,320.64c.85-10.82,1.63-20.83,2.42-30.84-.45-.28-.89-.57-1.34-.85-1.32,1.14-2.9,2.09-3.92,3.46-5.47,7.32-10.73,14.81-16.25,22.09-1.04,1.37-3.61,3.31-4.3,2.92-3.27-1.84-8.63-4.31-8.72-6.73-.52-13.56-.45-27.25,.8-40.76,1.25-13.45,10.19-23.16,19.19-32.43,.76-.78,2.72-1.1,3.84-.74,6.95,2.23,14.26,3.92,20.56,7.4,3.76,2.08,7.03,6.68,8.57,10.87,4.07,11.09,1.45,22.71,1.04,34.13-.25,6.98-.87,13.95-.91,20.93-.02,3.37-.84,5.1-4.4,5.87-5.32,1.14-10.49,2.94-16.56,4.69Zm-12.68-28.36c1.47-.58,2.74-.67,3.1-1.29,3.74-6.45,7.48-12.91,10.85-19.55,.69-1.36,.39-3.79-.39-5.21-2.78-5.08-7.5-7.49-13.55-9.04v35.09Z"/>
      <path class="cls-1" d="M392.85,578.95c-2.68-4.86-5.12-9.89-8.18-14.5-1.11-1.68-3.7-2.38-5.61-3.53-.61,1.85-1.64,3.68-1.76,5.57-.27,4.16-.08,8.35-.08,12.53-.88,0-1.76,0-2.64,0-.88-12.75-.92-25.53-.94-38.21,8.08-3.22,15.41-1.72,18.38,3.58,2.48,4.42,2.02,10.56-1.93,13.63-3.78,2.93-3.2,5.6-1.16,8.89,1.56,2.52,3.18,5,4.57,7.61,.61,1.15,.73,2.57,1.07,3.87-.57,.19-1.14,.38-1.71,.57Zm-10.31-38.42l-.77,1.06c-.99,.06-2.09-.14-2.95,.22-4.95,2.07-2.05,6.36-2.21,9.53-.12,2.47,1.52,7.09,2.66,7.18,3.15,.25,7.71-.39,9.36-2.52,1.83-2.34,2.1-7.08,1.06-10.09-.8-2.34-4.65-3.63-7.15-5.38Z"/>
      <path class="cls-1" d="M433.3,560.03c-1.18,4.69-1.98,9.23-3.51,13.51-1.43,4.01-5.23,6.41-9.06,5.49-3.12-.75-6.9-3.37-8.21-6.18-4.39-9.44-4.14-19.5,.04-28.94,1.14-2.57,5.03-4.8,8.04-5.45,3.98-.86,7.66,1.55,8.94,5.59,1.63,5.16,2.52,10.55,3.76,15.99Zm-3.64-.64c-.37-3.64-.54-7.63-1.22-11.54-.71-4.08-2.88-7.17-7.53-7.17-4.46,0-7,3.21-7.18,6.91-.37,7.7,.03,15.46,.53,23.16,.28,4.2,3.77,6,7.4,5.98,3.9-.02,6.29-2.87,6.94-6.66,.59-3.41,.7-6.91,1.05-10.69Z"/>
      <path class="cls-1" d="M468.85,537.88c.46,1.53,1.3,3.06,1.32,4.59,.14,8.83,.22,17.66,.06,26.48-.1,5.44-4.41,9.56-9.53,9.63-5.49,.07-9.87-3.97-10.06-9.51-.31-8.82-.56-17.64-.62-26.46,0-1.28,1.18-2.57,1.81-3.86,.48,1.25,1.34,2.49,1.36,3.75,.13,8.49,.02,16.99,.11,25.49,.05,5.18,2.17,7.74,6.28,7.99,4.74,.29,7.82-2.25,7.86-7.57,.06-8.32-.54-16.64-.76-24.96-.05-1.8,.32-3.61,.5-5.42,.55-.06,1.11-.11,1.66-.17Z"/>
      <path class="cls-1" d="M350.67,562.85c-3-.4-5.2-.7-7.39-.99,.01-.51,.03-1.03,.04-1.54,3.2-.18,6.39-.36,10.2-.57,.25,5.48,.76,10.41,.62,15.33-.12,4.03-8.78,6.96-13.37,4.52-1.83-.98-3.6-2.49-4.79-4.19-5.18-7.43-5.04-23.92,.04-31.48,4.13-6.15,12.96-5.48,17.14,2.56-2.43-1.37-3.82-2.17-5.22-2.95-4.81-2.68-8.98-1.43-10.83,3.75-3.01,8.42-2.69,17.04,.09,25.44,1.19,3.58,4.19,5.5,8.2,5.22,3.39-.24,5.69-1.43,5.33-5.52-.27-3.1-.05-6.24-.05-9.57Z"/>
      <path class="cls-1" d="M492.1,577.48c-.41-1.41-1.15-2.81-1.17-4.23-.19-10.32-.12-20.64-.39-30.96-.09-3.53,1.25-4.87,4.63-4.64,1.82,.13,3.66,.04,5.49,.16,7.08,.46,9.82,3.43,9.72,10.43-.09,6.56-3.61,10.53-10.07,10.33-4.89-.16-6.53,1.54-6.11,6.31,.36,4.12,.08,8.29,.08,12.44-.73,.05-1.45,.11-2.18,.16Zm1.83-20.34c5.32-.73,10.77,.73,12.57-4.51,1.07-3.11,.76-8.02-1.1-10.49-2.73-3.63-7.58-3.08-12.24-.98,.25,5.06,.49,10.12,.78,15.98Z"/>
      <path class="cls-1" d="M566.91,372.74c-11.98-.04-20.36-8.46-20.33-20.44,.03-11.36,8.96-20.36,20.17-20.33,11.9,.04,20.5,9.01,20.69,20.92,.19,11.48-11.23,21.27-20.53,19.85Zm-18.23-20.12c-.11,10.85,7.61,18.7,18.37,18.67,10.23-.03,18.31-8.1,18.37-18.35,.06-10.81-7.66-19.04-18.01-19.21-10.87-.18-18.61,7.63-18.72,18.89Z"/>
      <path class="cls-1" d="M575.72,364.21c-6.2-2.57-5.05-12.01-13.5-10.26-.33,3.06-.66,6.18-.99,9.31-.57,.02-1.14,.03-1.72,.05-.18-3.18-.45-6.35-.52-9.53-.04-1.64,.19-3.31,.46-4.93,.43-2.57,.98-7.32,1.52-7.33,4.34-.05,8.91,.17,12.97,1.57,2.98,1.02,3.33,6.59,.52,7.94-6.25,3.02-3.3,6.12-.89,9.55,.55,.78,.99,1.65,2.16,3.63Zm-12.54-21.57c-.42,.53-.85,1.05-1.27,1.58,.53,2.23,.63,6.08,1.68,6.37,2.62,.7,5.73,0,8.5-.69,.52-.13,.9-4,.5-4.17-3.02-1.3-6.25-2.11-9.41-3.08Z"/>
    </g>
  </g>
</svg>