<?xml version="1.0" encoding="UTF-8"?>
<svg id="_Слой_2" data-name="Слой 2" xmlns="http://www.w3.org/2000/svg" viewBox="0 0 985.52 625.74">
  <defs>
    <style>
      .cls-1 {
        fill: #0148d8;
      }
    </style>
  </defs>
  <g id="_Слой_3" data-name="Слой 3">
    <path class="cls-1" d="M287.35,62.51c-8.02,3.17-9.43,10.06-9.42,17.6,.03,67.49,.08,134.98,.09,202.47,0,14.57,6.04,25.52,18.77,32.89,23.48,13.59,46.9,27.26,70.23,41.11,12.15,7.21,24.09,7.52,36.28,.34,20.37-12,40.77-23.95,61.15-35.92,4.59-2.7,9.32-5.19,13.75-8.15,6.88-4.6,6.96-10.89,.39-15.82-1.86-1.4-3.86-2.62-5.87-3.8-23.51-13.86-47.05-27.67-70.55-41.54-11.26-6.64-16.92-16.39-16.86-29.64,.16-33.66,.09-67.32,.1-100.98,0-1.76,0-3.51,0-6.15,2.49,1.2,4.13,1.86,5.63,2.75,24.97,14.67,49.83,29.51,74.89,44,18.04,10.43,36.5,10.45,54.59,.16,20.4-11.6,40.61-23.55,60.75-35.59,3.62-2.17,5.87-1.55,8.64,1.08,8.42,7.97,11.67,17.85,11.67,29.21,0,63.99,.07,127.98,.16,191.97,.02,11.23,5.93,15.13,15.09,9.79,25.31-14.75,50.55-29.62,75.74-44.57,7.98-4.74,13.5-11.9,14.77-20.99,1.29-9.16,1.13-18.57,1.14-27.86,.1-58.82,.09-117.65,.09-176.47,0-12.78-5.07-23.29-16.03-29.82-31.45-18.73-63.26-36.87-94.76-55.52-7.22-4.27-13.59-3.87-20.54,.24-21.78,12.89-43.69,25.54-65.5,38.38-12.52,7.37-24.84,7.13-37.3-.18-19.96-11.71-40.04-23.2-59.98-34.95-3.22-1.9-5.94-2.23-9.24-.43-8,4.37-16.15,8.48-24.17,12.81-10.05,5.42-19.98,11.07-30.07,16.42-6.34,2.9-22.58,9.64-29.77,12.85l-33.88,14.35Z"/>
    <path class="cls-1" d="M28.34,527.41v94.08H0v-162.73c8.62,0,17.37-.14,26.11,.18,1.09,.04,2.35,2.43,3.1,3.95,16.61,33.55,33.16,67.14,49.73,100.71,.37,.74,.82,1.44,1.75,3.07,1.16-2.15,2.1-3.74,2.91-5.39,16.28-32.97,32.61-65.92,48.73-98.96,1.42-2.91,2.96-3.76,6.01-3.68,7.61,.21,15.23,.07,23.09,.07v162.74h-28.36v-94.41c-.37-.07-.74-.15-1.11-.22-4.52,9.35-9.03,18.71-13.55,28.06-10.12,20.98-20.36,41.9-30.26,62.98-1.71,3.65-3.96,4.16-7.39,4.09-3.29-.07-5.7-.2-7.47-3.93-13.84-29.16-27.96-58.18-42-87.24-.57-1.18-1.21-2.32-1.82-3.48-.37,.04-.74,.07-1.11,.11Z"/>
    <path class="cls-1" d="M407.89,503.25v-44.15h30.45v162.35h-26.27c-.15-1.73-.29-3.49-.44-5.25-.33-.1-.73-.37-.91-.26-36.46,21.35-75.68,5.07-85.41-35.86-5.37-22.56-2.67-44.17,11.58-63.18,15.08-20.13,43.94-26.7,66.57-15.69,1.16,.57,2.35,1.09,4.44,2.06Zm4.68,57.77c-1.19-6.74-1.93-13.03-3.47-19.12-2.45-9.72-8.65-16.26-18.69-17.86-10.83-1.73-20.58,.72-27.55,10.08-10.04,13.48-10.03,40.49,.03,53.93,6.8,9.08,16.33,11.06,26.79,9.5,9.55-1.43,16.23-7.07,18.94-16.33,1.94-6.64,2.71-13.62,3.96-20.2Z"/>
    <path class="cls-1" d="M219.83,569.41c-.09,11.71,7.52,22.49,17.76,25.77,12.6,4.04,26.12,.38,32.56-9.62,2.46-3.81,4.61-4.13,8.42-2.89,8.04,2.61,16.2,4.83,24.68,7.31-5.64,14.25-15.4,23.96-28.83,30.01-37.1,16.72-90.85-4.87-88.05-61.99,1.11-22.73,9.59-41.8,29.89-53.86,22.42-13.32,61.09-12.38,78.78,16.67,8.59,14.1,10.4,29.6,9.64,45.67-.16,3.46-2.49,2.9-4.58,2.91-11.32,.02-22.65,.01-33.97,.01-13.66,0-27.31,0-40.97,0h-5.34Zm1.02-23.49h52.3c-1.61-16.16-10-23.53-25.8-23.13-15.05,.38-25.78,9.67-26.5,23.13Z"/>
    <path class="cls-1" d="M608.39,540.76c-1.67-9.93-6.15-14.63-14.69-15.99-14.62-2.33-25.53,2.37-32.13,14.22-8.85-2.83-17.81-5.69-27.26-8.71,5.84-17.05,16.82-28.16,34.03-32.29,15.05-3.61,30.12-2.89,44.77,2.44,15,5.45,23.36,16.58,24.53,32.15,1.12,14.92,.78,29.96,.91,44.95,.12,14.48,.03,28.96,.03,43.89h-26.85v-13.23l-1.3-.76c-.82,1.18-1.51,2.48-2.48,3.53-15.67,16.9-44.56,17.17-58.91,9.5-13.42-7.18-19.26-18.98-19.04-33.76,.24-16,7.44-28.57,22.68-33.78,13.9-4.75,28.68-6.97,43.1-10.16,4.03-.89,8.16-1.31,12.61-2Zm-.71,25.24c-3.73,.62-7.22,.94-10.57,1.81-9.62,2.48-19.4,4.57-28.68,8-6.98,2.58-9.45,8.24-8.34,14.24,1.12,6.02,6.05,10.01,13.31,10.76,21.17,2.19,36.04-12.6,34.28-34.82Z"/>
    <path class="cls-1" d="M845.42,621.67h-26.63v-12.05c-9.06,9.5-19.13,14.51-30.96,15.65-15.78,1.52-30.7-.06-42.26-12.65-7.89-8.59-12.11-19.22-12.42-30.4-.76-27.25-.25-54.54-.25-82.2h30.14c0,2.44-.02,4.72,0,7.01,.19,20.48,.33,40.95,.66,61.43,.05,3.11,.75,6.29,1.61,9.31,3.74,13.17,11.83,19.29,24.59,18.87,12.46-.42,20.91-7.46,23.59-20.34,1.04-4.99,1.28-10.21,1.32-15.34,.13-19.65,.03-39.3,.03-58.95,0-.63,.18-1.25,.31-2.11h30.26v121.77Z"/>
    <path class="cls-1" d="M925.05,535.53c7.24-10.96,14.32-21.41,21.07-32.07,1.95-3.09,4.11-4.09,7.67-4,9.94,.25,19.89,.09,30.87,.09-5.55,7.98-10.53,15.16-15.54,22.32-8.03,11.45-15.97,22.96-24.19,34.27-2.12,2.92-2.07,4.89,0,7.79,12.79,17.87,25.38,35.89,38.03,53.86,.74,1.05,1.37,2.16,2.57,4.07-11.85,0-22.92,.09-33.98-.13-1.22-.02-2.72-1.66-3.56-2.9-6.63-9.78-13.13-19.66-19.69-29.5-.99-1.48-2.03-2.93-3.39-4.89-7.01,10.45-14.11,20.29-20.36,30.65-3.27,5.42-6.98,7.36-13.21,6.94-8.72-.59-17.5-.15-27.35-.15,4.74-6.84,8.85-12.82,13.01-18.75,9.18-13.08,18.3-26.21,27.65-39.17,2.07-2.87,2.16-4.83,.03-7.8-12.33-17.17-24.42-34.52-36.58-51.82-.92-1.31-1.72-2.7-3.03-4.77,11.88,0,22.98-.11,34.07,.15,1.33,.03,2.9,1.92,3.85,3.31,6.39,9.35,12.64,18.79,18.95,28.19,.9,1.35,1.9,2.63,3.13,4.31Z"/>
    <path class="cls-1" d="M670.39,455.65h29.96v165.82h-29.96v-165.82Z"/>
    <path class="cls-1" d="M472.89,499.71h29.73v121.73h-29.73v-121.73Z"/>
    <path class="cls-1" d="M472.77,485.59v-26.54h29.99v26.54h-29.99Z"/>
  </g>
</svg>