
<svg width="527" height="527" viewBox="0 0 527 527" fill="none" xmlns="http://www.w3.org/2000/svg" opacity="0.5">
    <g clip-path="url(#clip0_327_173)">
        <path d="M295.316 0.0771953C331.032 0.0771953 366.766 0.0208213 402.481 0.0771953C429.508 0.133569 447.149 17.6847 447.375 44.6879C447.487 58.7814 447.431 72.8561 447.412 86.9496C447.356 114.366 431.614 131.917 403.948 133.364C382.075 134.511 360.108 133.89 338.178 133.984C322.512 134.06 306.845 133.853 291.179 134.022C256.234 134.398 228.268 162.397 228.286 196.841C228.286 231.981 256.14 259.774 291.668 259.83C347.451 259.924 403.215 259.792 458.998 259.886C492.306 259.943 519.595 282.079 525.633 313.592C531.952 346.552 515.909 377.126 484.538 389.284C475.172 392.91 464.452 394.169 454.296 394.395C419.239 395.128 396.256 418.26 396.632 453.343C396.726 462.081 397.253 470.988 395.786 479.52C391.14 506.485 368.346 525.709 341.037 525.915C301.241 526.197 261.444 526.16 221.647 525.934C196.934 525.784 178.766 507.801 177.864 482.489C177.28 466.234 177.375 449.923 177.845 433.65C178.578 408.169 195.354 391.614 222.042 388.983C229.189 388.288 236.505 387.743 243.314 385.713C273.217 376.806 291.009 347.811 286.42 316.373C282.151 287.19 254.843 263.231 224.807 263.081C173.726 262.837 122.664 263.118 71.5825 262.987C38.6318 262.912 13.2229 244.872 4.49623 215.821C-8.33046 173.089 23.8491 130.677 69.6641 130.301C82.0583 130.207 94.095 129.474 104.966 122.766C122.607 111.848 131.635 95.9507 132.18 75.2802C132.349 68.722 131.992 62.1262 132.03 55.568C132.105 24.0925 155.539 0.359066 187.211 0.133569C223.246 -0.12951 259.281 0.0771953 295.316 0.0771953Z" fill="white"/>
        <path d="M80.9824 439.829C35.7316 439.735 0.636896 403.937 0.824971 358.049C0.994238 314.302 37.4995 278.542 81.7723 278.712C126.271 278.881 162.325 315.279 162.099 359.777C161.873 404.444 125.951 439.885 80.9824 439.81V439.829Z" fill="white"/>
    </g>
    <defs>
        <clipPath id="clip0_327_173">
            <rect width="526.12" height="526.12" fill="white" transform="translate(0.822266)"/>
        </clipPath>
    </defs>
</svg>
