<svg width="1631" height="843" viewBox="0 0 1631 843" fill="none" xmlns="http://www.w3.org/2000/svg">
<g filter="url(#filter0_d_1748_7312)">
<path d="M1011.5 401V356H910.5V429H1094.5V304H714V511H928.5V565H1151.5V525H1215V264H1113V205H872.5V232H649.5V272H560V232H515V264H420V225.5H219.5V481H351V530.5H579.5V573.5H817.5V643.5H1011.5V685.5H1166.5V659.5H1321V558.5H1356.5V370H1376V330H1303.5V216H1339V143.5H1279V8H1005V56.5H966.5V105H903V123H779V56.5H649.5V105H529V63H503V123H429.5V87.5H356.5V56.5H251V156.5H133.5V246H84V284.5H21.5V321.5H50.5V401H8.5V440H98V511H57V632H311V677.5H483V725H631V757H676.5V790H833.5V834.5H978H1622.5V677.5" stroke="#0ABAB5"/>
</g>
<defs>
<filter id="filter0_d_1748_7312" x="0.5" y="0" width="1630" height="842.5" filterUnits="userSpaceOnUse" color-interpolation-filters="sRGB">
<feFlood flood-opacity="0" result="BackgroundImageFix"/>
<feColorMatrix in="SourceAlpha" type="matrix" values="0 0 0 0 0 0 0 0 0 0 0 0 0 0 0 0 0 0 127 0" result="hardAlpha"/>
<feOffset/>
<feGaussianBlur stdDeviation="3.75"/>
<feComposite in2="hardAlpha" operator="out"/>
<feColorMatrix type="matrix" values="0 0 0 0 0.0392157 0 0 0 0 0.729412 0 0 0 0 0.709804 0 0 0 1 0"/>
<feBlend mode="normal" in2="BackgroundImageFix" result="effect1_dropShadow_1748_7312"/>
<feBlend mode="normal" in="SourceGraphic" in2="effect1_dropShadow_1748_7312" result="shape"/>
</filter>
</defs>
</svg>
