<svg width="273" height="274" viewBox="0 0 273 274" fill="none" xmlns="http://www.w3.org/2000/svg">
<g clip-path="url(#clip0_0_317)">
<g clip-path="url(#clip1_0_317)">
<path d="M268.115 127.906L267.377 133.509L249.566 135.302L266.253 142.04L265.562 147.286L247.494 149.372L264.428 155.888L263.704 161.385L239.195 151.184L239.928 145.616L257.848 143.547L241.066 136.978L241.814 131.303L268.115 127.906Z" fill="#0ABAB5"/>
<path d="M254.296 185.693L249.994 184.042L254.883 171.304L249.673 169.304L245.184 181L241.05 179.414L245.539 167.717L239.658 165.46L234.679 178.433L230.276 176.743L237.254 158.561L261.184 167.745L254.296 185.693Z" fill="#0ABAB5"/>
<path d="M223.453 197.249L219.346 194.719L228.86 179.27L250.685 192.71L247.74 197.492L230.023 186.581L223.453 197.249Z" fill="#0ABAB5"/>
<path d="M209.951 219.933C207.783 217.54 206.67 214.977 206.612 212.245C206.553 209.513 207.688 206.886 210.016 204.364C212.539 201.631 215.474 200.257 218.819 200.242C222.165 200.261 225.329 201.646 228.309 204.397C231.131 207.002 232.703 210.005 233.026 213.405C233.332 216.824 232.192 219.935 229.603 222.739C227.536 224.979 225.167 226.271 222.498 226.616C219.828 226.96 217.441 226.308 215.337 224.66L219.073 220.613C220.309 221.362 221.551 221.626 222.799 221.406C224.048 221.221 225.186 220.572 226.211 219.461C227.269 218.315 227.838 217.044 227.918 215.648C228 214.286 227.72 213.015 227.078 211.835C226.436 210.654 225.56 209.551 224.449 208.526C222.509 206.735 220.542 205.752 218.548 205.577C216.572 205.419 214.883 206.098 213.483 207.614C211.155 210.136 211.24 212.876 213.736 215.833L209.951 219.933Z" fill="#0ABAB5"/>
<path d="M206.388 242.757C203.305 244.882 200.107 245.57 196.794 244.821C193.474 244.107 190.677 242.099 188.403 238.799C186.129 235.498 185.249 232.17 185.764 228.813C186.272 225.49 188.078 222.76 191.181 220.622C194.303 218.47 197.518 217.742 200.823 218.437C204.143 219.152 206.94 221.16 209.214 224.46C211.515 227.8 212.412 231.132 211.903 234.455C211.389 237.811 209.55 240.579 206.388 242.757ZM203.833 238.922C205.572 237.724 206.516 236.112 206.665 234.085C206.794 232.073 206.103 229.97 204.591 227.776C203.025 225.503 201.286 224.079 199.373 223.502C197.46 222.926 195.598 223.247 193.786 224.467C192.027 225.678 191.093 227.284 190.984 229.283C190.874 231.281 191.596 233.407 193.148 235.66C194.673 237.874 196.392 239.269 198.305 239.845C200.232 240.442 202.074 240.134 203.833 238.922Z" fill="#0ABAB5"/>
<path d="M178.878 229.666L187.703 253.731L180.165 256.495L168.494 242.025L169.079 260.56L161.711 263.262L152.887 239.197L157.855 237.375L164.126 254.477L163.77 235.206L167.86 233.706L180.051 248.446L173.842 231.513L178.878 229.666Z" fill="#0ABAB5"/>
<path d="M133.691 267.271L133.124 262.698L146.665 261.019L145.978 255.482L133.545 257.023L133.001 252.628L145.434 251.087L144.659 244.835L130.868 246.545L130.288 241.864L149.616 239.469L152.769 264.906L133.691 267.271Z" fill="#0ABAB5"/>
</g>
<path d="M63.9582 28.1038L69.1802 25.9414L79.6382 40.4696L77.1296 22.6496L82.019 20.6249L92.859 35.2287L90.0349 17.3055L95.1571 15.1845L98.5775 41.5108L93.3888 43.6594L82.6372 29.1749L85.3397 46.9926L80.0512 49.1825L63.9582 28.1038Z" fill="#0ABAB5"/>
<path d="M120.911 11.1783L121.633 15.7296L108.157 17.8646L109.03 23.3759L121.403 21.4155L122.096 25.7889L109.723 27.7493L110.709 33.9717L124.433 31.7972L125.171 36.4551L105.935 39.5028L101.924 14.1866L120.911 11.1783Z" fill="#0ABAB5"/>
<path d="M146.342 32.1101L146.205 36.9321L128.068 36.4174L128.796 10.7957L134.409 10.955L133.819 31.7546L146.342 32.1101Z" fill="#0ABAB5"/>
<path d="M172.737 32.4619C171.748 35.5357 170.086 37.7809 167.749 39.1974C165.412 40.614 162.569 40.9447 159.221 40.1896C155.593 39.3712 152.935 37.5171 151.25 34.6275C149.593 31.7197 149.211 28.2875 150.103 24.3309C150.948 20.585 152.762 17.722 155.546 15.742C158.354 13.7672 161.618 13.1997 165.341 14.0392C168.314 14.7098 170.618 16.115 172.251 18.2548C173.884 20.3946 174.513 22.7876 174.137 25.4338L168.764 24.222C168.795 22.7773 168.403 21.5695 167.589 20.5985C166.803 19.6094 165.673 18.9486 164.198 18.6159C162.676 18.2727 161.291 18.4154 160.042 19.044C158.822 19.6545 157.861 20.5326 157.16 21.6784C156.458 22.8242 155.941 24.1346 155.609 25.6095C155.028 28.1848 155.16 30.3797 156.006 32.1942C156.857 33.9853 158.289 35.1079 160.302 35.562C163.65 36.3171 165.981 34.8745 167.294 31.2342L172.737 32.4619Z" fill="#0ABAB5"/>
<path d="M194.287 24.1351C197.668 25.743 199.863 28.1687 200.871 31.4123C201.912 34.6445 201.572 38.0704 199.851 41.69C198.129 45.3095 195.687 47.7356 192.523 48.9683C189.391 50.1896 186.123 49.9911 182.72 48.3729C179.296 46.7444 177.058 44.3249 176.007 41.1143C174.966 37.8821 175.307 34.4562 177.028 30.8367C178.77 27.1737 181.207 24.7316 184.339 23.5104C187.503 22.2777 190.819 22.4859 194.287 24.1351ZM192.243 28.2656C190.335 27.3586 188.467 27.3472 186.638 28.2314C184.831 29.1259 183.355 30.7761 182.211 33.1819C181.026 35.6744 180.662 37.8931 181.119 39.8378C181.576 41.7826 182.785 43.2348 184.747 44.1944C186.676 45.1117 188.534 45.118 190.319 44.2132C192.105 43.3083 193.585 41.6205 194.76 39.1497C195.915 36.7222 196.263 34.536 195.806 32.5912C195.359 30.6248 194.172 29.1829 192.243 28.2656Z" fill="#0ABAB5"/>
<path d="M196.703 54.5043L213.132 34.8297L219.294 39.9753L212.598 57.3181L228.358 47.5436L234.382 52.5738L217.953 72.2484L213.891 68.8565L225.566 54.8743L209.055 64.8185L205.711 62.0265L212.381 44.0983L200.82 57.9424L196.703 54.5043Z" fill="#0ABAB5"/>
<path d="M251.863 74.8366L248.186 77.6139L239.963 66.7268L235.51 70.09L243.061 80.0867L239.528 82.7555L231.977 72.7589L226.95 76.556L235.325 87.6443L231.562 90.4868L219.823 74.946L240.276 59.4968L251.863 74.8366Z" fill="#0ABAB5"/>
<path d="M79.6045 254.811L75.1208 251.369L82.4735 235.048L68.2953 246.131L64.0972 242.909L71.3244 226.219L57.2146 237.627L52.8165 234.251L73.9056 218.126L78.3607 221.545L71.1926 238.099L85.2719 226.849L89.8127 230.334L79.6045 254.811Z" fill="#0ABAB5"/>
<path d="M36.4703 213.949L40.0513 211.049L48.6383 221.652L52.9746 218.14L45.0899 208.405L48.531 205.618L56.4156 215.353L61.3114 211.389L52.5659 200.59L56.2307 197.622L68.4881 212.757L48.5692 228.889L36.4703 213.949Z" fill="#0ABAB5"/>
<path d="M41.8825 181.461L46.127 179.169L54.7495 195.133L32.1969 207.314L29.528 202.373L47.8362 192.484L41.8825 181.461Z" fill="#0ABAB5"/>
<path d="M28.9901 158.425C32.1463 157.745 34.9221 158.062 37.3173 159.377C39.7126 160.693 41.4202 162.989 42.4402 166.266C43.5458 169.818 43.2688 173.046 41.609 175.951C39.9192 178.84 37.138 180.887 33.2653 182.092C29.5988 183.234 26.2122 183.094 23.1055 181.673C19.9917 180.229 17.8677 177.685 16.7336 174.042C15.8277 171.132 15.893 168.434 16.9294 165.95C17.9659 163.466 19.7239 161.725 22.2033 160.727L23.8403 165.986C22.5739 166.681 21.7238 167.625 21.2901 168.815C20.8264 169.99 20.8192 171.3 21.2686 172.743C21.7322 174.233 22.5485 175.361 23.7173 176.128C24.8561 176.88 26.097 177.273 27.4399 177.307C28.7828 177.342 30.1761 177.134 31.6198 176.685C34.1405 175.9 35.9752 174.688 37.1238 173.049C38.2495 171.416 38.5057 169.615 37.8922 167.644C36.8722 164.367 34.4576 163.07 30.6485 163.753L28.9901 158.425Z" fill="#0ABAB5"/>
<path d="M11.0049 143.928C10.7068 140.196 11.7101 137.082 14.0147 134.587C16.2935 132.069 19.4306 130.651 23.4258 130.332C27.4211 130.013 30.7435 130.915 33.393 133.039C36.0167 135.141 37.4785 138.069 37.7785 141.826C38.0805 145.605 37.104 148.753 34.8491 151.269C32.5703 153.786 29.4333 155.204 25.438 155.524C21.3949 155.846 18.0615 154.957 15.4378 152.855C12.7883 150.732 11.3107 147.756 11.0049 143.928ZM15.604 143.633C15.7722 145.738 16.6964 147.362 18.3766 148.503C20.055 149.621 22.2219 150.074 24.8775 149.862C27.6287 149.642 29.7322 148.848 31.1878 147.48C32.6435 146.112 33.2964 144.338 33.1464 142.159C32.9764 140.03 32.0531 138.419 30.3767 137.325C28.7003 136.231 26.4984 135.792 23.7711 136.01C21.0916 136.224 19.024 137.015 17.5683 138.384C16.0887 139.754 15.434 141.504 15.604 143.633Z" fill="#0ABAB5"/>
<path d="M36.0962 126.65L10.8431 122.259L12.2182 114.35L30.5856 111.478L14.2408 102.716L15.5851 94.9845L40.8383 99.375L39.9318 104.589L21.985 101.469L38.8527 110.796L38.1065 115.087L19.2456 118.276L37.015 121.365L36.0962 126.65Z" fill="#0ABAB5"/>
<path d="M26.1235 68.7131L30.3672 70.5087L25.0505 83.0742L30.1894 85.2486L35.0713 73.7109L39.1492 75.4364L34.2674 86.9741L40.0693 89.429L45.4843 76.6315L49.8275 78.4692L42.2381 96.4057L18.6323 86.4174L26.1235 68.7131Z" fill="#0ABAB5"/>
</g>
<defs>
<clipPath id="clip0_0_317">
<rect width="273" height="274" fill="white"/>
</clipPath>
<clipPath id="clip1_0_317">
<rect width="272.451" height="271.881" fill="white" transform="translate(1 1)"/>
</clipPath>
</defs>
</svg>
