<svg width="61" height="60" viewBox="0 0 61 60" fill="none" xmlns="http://www.w3.org/2000/svg">
<g clip-path="url(#clip0_0_492)">
<path d="M30.8741 0.0078125C14.5016 0.0078125 1.18091 13.3018 1.18091 29.6425C1.18091 34.7078 2.54202 39.7604 5.1204 44.2816L0.75 59.996L16.7483 55.6832C21.4125 58.2318 26.2883 59.577 30.8741 59.577C47.069 59.577 60.75 45.8681 60.75 29.6425C60.75 13.3018 47.3479 0.0078125 30.8741 0.0078125ZM30.8741 54.6129C26.5375 54.6129 22.0827 53.2925 17.9884 50.7946L17.4721 50.4779L7.71167 52.9908L10.3705 43.5481L10.022 43.005C7.48527 39.0564 6.14498 34.4359 6.14498 29.6425C6.14498 16.0389 17.2387 4.97188 30.8741 4.97188C44.6108 4.97188 55.7859 16.0389 55.7859 29.6425C55.7859 43.4109 44.6107 54.6129 30.8741 54.6129Z" fill="white"/>
<path d="M36.1779 37.0664C35.7302 37.6482 34.9637 37.8756 34.2697 37.6323C32.5174 37.0167 26.5465 34.5188 23.2743 28.2164C22.9506 27.59 23.0379 26.8443 23.4946 26.3152L25.8496 23.5909L23.1462 17.3093L21.3065 17.209C21.2837 17.207 21.2599 17.207 21.236 17.207C20.9341 17.207 20.6443 17.3133 20.4169 17.5119C19.6614 18.1681 18.3369 19.5253 17.9507 21.2448C17.3442 23.9453 18.3498 27.2574 20.7802 30.5714C22.3817 32.7556 27.2563 39.4015 36.4965 42.0135C38.6976 42.6361 40.6852 42.3988 42.3968 41.3037C43.4959 40.6007 44.2882 39.4421 44.5701 38.1247L44.867 36.7397L38.6053 33.8804L36.1779 37.0664Z" fill="white"/>
<path d="M30.8734 6.95508C18.3321 6.95508 8.12988 17.1315 8.12988 29.641C8.12988 34.0521 9.36099 38.3023 11.6922 41.9301L12.5242 43.2238L10.5574 50.2053L17.7892 48.3438L19.0242 49.0983C22.8039 51.4056 26.9022 52.6248 30.8735 52.6248C43.5151 52.6248 53.7996 42.3144 53.7996 29.6411C53.7995 17.1315 43.515 6.95508 30.8734 6.95508ZM46.8062 37.1537L46.5093 38.5397C46.1181 40.3715 45.0072 41.9877 43.4653 42.9746C42.0406 43.885 40.4858 44.3417 38.8179 44.3417C37.8966 44.3417 36.9405 44.2027 35.9536 43.9237C26.0572 41.1249 20.8787 34.065 19.177 31.7448C16.402 27.9612 15.2773 24.0772 16.0109 20.8089C16.5222 18.5353 18.1732 16.8276 19.1115 16.0125C19.7489 15.4575 20.5749 15.1825 21.4138 15.2243L23.2713 15.3255C24.0189 15.3662 24.6663 15.82 24.9621 16.509L27.6695 22.8402C27.9604 23.5233 27.8354 24.3264 27.3498 24.8873L25.122 27.4657C27.9625 32.7872 32.9623 35.034 34.7315 35.6863L37.0676 32.6573C37.6296 31.9315 38.6036 31.6932 39.4345 32.0754L45.7131 34.9695C46.549 35.3547 46.9987 36.2532 46.8062 37.1537Z" fill="white"/>
</g>
<defs>
<clipPath id="clip0_0_492">
<rect width="60" height="60" fill="white" transform="translate(0.75)"/>
</clipPath>
</defs>
</svg>
